<svg xmlns="http://www.w3.org/2000/svg" viewBox="0 0 1600 1200" width="1600" height="1200" preserveAspectRatio="xMidYMid slice">
<defs>

<linearGradient id="sky601" x1="0" y1="0" x2="0" y2="1">
<stop offset="0%" stop-color="#cdeef0"/><stop offset="100%" stop-color="#eef7ee"/>
</linearGradient>

<filter id="grain601"><feTurbulence type="fractalNoise" baseFrequency="0.85" numOctaves="2" seed="601" stitchTiles="stitch" result="noise"/><feColorMatrix in="noise" type="matrix" values="0 0 0 0 0  0 0 0 0 0  0 0 0 0 0  0 0 0 0.035 0"/></filter>
<radialGradient id="vig601" cx="50%" cy="42%" r="75%"><stop offset="55%" stop-color="#000" stop-opacity="0"/><stop offset="100%" stop-color="#000" stop-opacity="0.30"/></radialGradient>
</defs>

<rect x="0" y="0" width="1600" height="552.0" fill="url(#sky601)"/>
<polygon points="0,552.0 1600,552.0 1600,1200 0,1200" fill="#c8ad82"/>
<polygon points="770.0,552.0 830.0,552.0 1600,1200 0,1200" fill="#000" opacity="0.05"/>
<line x1="0" y1="552.0" x2="1600" y2="552.0" stroke="#000" stroke-opacity="0.08" stroke-width="2.0"/><line x1="0" y1="559.2972184114018" x2="1600" y2="559.2972184114018" stroke="#000" stroke-opacity="0.08" stroke-width="2.2857142857142856"/><line x1="0" y1="575.7087325655838" x2="1600" y2="575.7087325655838" stroke="#000" stroke-opacity="0.08" stroke-width="2.571428571428571"/><line x1="0" y1="599.23495198664" x2="1600" y2="599.23495198664" stroke="#000" stroke-opacity="0.08" stroke-width="2.857142857142857"/><line x1="0" y1="629.0298993638582" x2="1600" y2="629.0298993638582" stroke="#000" stroke-opacity="0.08" stroke-width="3.142857142857143"/><line x1="0" y1="664.5657715874705" x2="1600" y2="664.5657715874705" stroke="#000" stroke-opacity="0.08" stroke-width="3.428571428571429"/><line x1="0" y1="705.4668117716801" x2="1600" y2="705.4668117716801" stroke="#000" stroke-opacity="0.08" stroke-width="3.7142857142857144"/><line x1="0" y1="751.4453949618764" x2="1600" y2="751.4453949618764" stroke="#000" stroke-opacity="0.08" stroke-width="4.0"/><line x1="0" y1="802.2708813974941" x2="1600" y2="802.2708813974941" stroke="#000" stroke-opacity="0.08" stroke-width="4.285714285714286"/><line x1="0" y1="857.7522145279438" x2="1600" y2="857.7522145279438" stroke="#000" stroke-opacity="0.08" stroke-width="4.571428571428571"/><line x1="0" y1="917.7272708784465" x2="1600" y2="917.7272708784465" stroke="#000" stroke-opacity="0.08" stroke-width="4.857142857142858"/><line x1="0" y1="982.0558997958201" x2="1600" y2="982.0558997958201" stroke="#000" stroke-opacity="0.08" stroke-width="5.142857142857142"/><line x1="0" y1="1050.6151424907941" x2="1600" y2="1050.6151424907941" stroke="#000" stroke-opacity="0.08" stroke-width="5.428571428571429"/><line x1="0" y1="1123.2958169341655" x2="1600" y2="1123.2958169341655" stroke="#000" stroke-opacity="0.08" stroke-width="5.714285714285714"/>
<rect x="0" y="534.0" width="1600" height="10" fill="#274b46" opacity="0.55"/>

<rect x="0" y="0" width="1600" height="1200" filter="url(#grain601)"/>
<rect x="0" y="0" width="1600" height="1200" fill="url(#vig601)"/>
</svg>