<svg xmlns="http://www.w3.org/2000/svg" viewBox="0 0 1600 1200" width="1600" height="1200" preserveAspectRatio="xMidYMid slice">
<defs>

<linearGradient id="sky103" x1="0" y1="0" x2="0" y2="1">
<stop offset="0%" stop-color="#f2b98d"/><stop offset="100%" stop-color="#7a5473"/>
</linearGradient>
<linearGradient id="sea103" x1="0" y1="0" x2="0" y2="1">
<stop offset="0%" stop-color="#33505f"/><stop offset="100%" stop-color="#0f2733"/>
</linearGradient>

<filter id="grain103"><feTurbulence type="fractalNoise" baseFrequency="0.85" numOctaves="2" seed="103" stitchTiles="stitch" result="noise"/><feColorMatrix in="noise" type="matrix" values="0 0 0 0 0  0 0 0 0 0  0 0 0 0 0  0 0 0 0.035 0"/></filter>
<radialGradient id="vig103" cx="50%" cy="42%" r="75%"><stop offset="55%" stop-color="#000" stop-opacity="0"/><stop offset="100%" stop-color="#000" stop-opacity="0.30"/></radialGradient>
</defs>

<rect x="0" y="0" width="1600" height="672.0000000000001" fill="url(#sky103)"/>
<rect x="0" y="672.0000000000001" width="1600" height="527.9999999999999" fill="url(#sea103)"/>
<circle cx="1088.0" cy="682.5600000000001" r="150" fill="#ffd9a0"/>
<g opacity="0.5">
<rect x="0" y="702.0000000000001" width="1600" height="3" fill="#ffd9a0" opacity="0.1"/><rect x="0" y="748.0000000000001" width="1600" height="3" fill="#ffd9a0" opacity="0.08800000000000001"/><rect x="0" y="794.0000000000001" width="1600" height="3" fill="#ffd9a0" opacity="0.07600000000000001"/><rect x="0" y="840.0000000000001" width="1600" height="3" fill="#ffd9a0" opacity="0.064"/><rect x="0" y="886.0000000000001" width="1600" height="3" fill="#ffd9a0" opacity="0.052000000000000005"/><rect x="0" y="932.0000000000001" width="1600" height="3" fill="#ffd9a0" opacity="0.04000000000000001"/>
</g>
<path d="M0 682.0000000000001 Q 288.0 644.0000000000001 640.0 678.0000000000001 T 1312.0 662.0000000000001 T 1640 686.0000000000001 L1640 712.0000000000001 L-40 712.0000000000001 Z" fill="#a68f6c"/>
<path d="M1372.833678549238 220.38562078420662 Q1383.427913719739 207.14282682108015 1394.0221488902403 220.38562078420662 Q1404.6163840607414 207.14282682108015 1415.2106192312426 220.38562078420662" stroke="rgba(20,20,20,0.38)" stroke-width="4" fill="none" stroke-linecap="round"/><path d="M1076.47856111467 167.27836706935395 Q1083.8687509602455 158.0406297623844 1091.258940805821 167.27836706935395 Q1098.6491306513967 158.0406297623844 1106.0393204969723 167.27836706935395" stroke="rgba(20,20,20,0.38)" stroke-width="4" fill="none" stroke-linecap="round"/><path d="M909.5793466264398 146.8222905989901 Q918.4904797988464 135.68337413348192 927.4016129712529 146.8222905989901 Q936.3127461436594 135.68337413348192 945.223879316066 146.8222905989901" stroke="rgba(20,20,20,0.38)" stroke-width="4" fill="none" stroke-linecap="round"/><path d="M1268.0446085511926 311.8730642539591 Q1275.6380537959635 302.3812576979955 1283.2314990407344 311.8730642539591 Q1290.8249442855054 302.3812576979955 1298.4183895302763 311.8730642539591" stroke="rgba(20,20,20,0.38)" stroke-width="4" fill="none" stroke-linecap="round"/><path d="M259.68919792856235 168.94693663951148 Q270.82965350135146 155.02136717352505 281.9701090741406 168.94693663951148 Q293.1105646469298 155.02136717352505 304.2510202197189 168.94693663951148" stroke="rgba(20,20,20,0.38)" stroke-width="4" fill="none" stroke-linecap="round"/>

<rect x="0" y="0" width="1600" height="1200" filter="url(#grain103)"/>
<rect x="0" y="0" width="1600" height="1200" fill="url(#vig103)"/>
</svg>