<svg xmlns="http://www.w3.org/2000/svg" viewBox="0 0 1600 1200" width="1600" height="1200" preserveAspectRatio="xMidYMid slice">
<defs>

<linearGradient id="sky302" x1="0" y1="0" x2="0" y2="1">
<stop offset="0%" stop-color="#cdeaf2"/><stop offset="100%" stop-color="#7fb8c4"/>
</linearGradient>

<filter id="grain302"><feTurbulence type="fractalNoise" baseFrequency="0.85" numOctaves="2" seed="302" stitchTiles="stitch" result="noise"/><feColorMatrix in="noise" type="matrix" values="0 0 0 0 0  0 0 0 0 0  0 0 0 0 0  0 0 0 0.035 0"/></filter>
<radialGradient id="vig302" cx="50%" cy="42%" r="75%"><stop offset="55%" stop-color="#000" stop-opacity="0"/><stop offset="100%" stop-color="#000" stop-opacity="0.30"/></radialGradient>
</defs>

<rect x="0" y="0" width="1600" height="744.0" fill="url(#sky302)"/>
<rect x="0" y="744.0" width="1600" height="456.0" fill="#1d5560"/>
<g>
<rect x="434.0" y="414.0" width="92" height="330" fill="#ffffff"/>
<rect x="434.0" y="414.0" width="92" height="46" fill="#1c4148"/>
<rect x="434.0" y="506.0" width="92" height="46" fill="#1c4148"/>
<rect x="434.0" y="598.0" width="92" height="46" fill="#1c4148"/>
<polygon points="418.0,414.0 542.0,414.0 520.0,354.0 440.0,354.0" fill="#ffffff"/>
<polygon points="440.0,354.0 520.0,354.0 480.0,314.0" fill="#1c4148"/>
<rect x="410.0" y="728.0" width="140" height="16" fill="#ffffff"/>
</g>
<g opacity="0.35">
<rect x="0" y="766.0" width="1600" height="3" fill="#fff" opacity="0.1"/><rect x="0" y="806.0" width="1600" height="3" fill="#fff" opacity="0.08800000000000001"/><rect x="0" y="846.0" width="1600" height="3" fill="#fff" opacity="0.07600000000000001"/><rect x="0" y="886.0" width="1600" height="3" fill="#fff" opacity="0.064"/><rect x="0" y="926.0" width="1600" height="3" fill="#fff" opacity="0.052000000000000005"/><rect x="0" y="966.0" width="1600" height="3" fill="#fff" opacity="0.04000000000000001"/>
</g>

<rect x="0" y="0" width="1600" height="1200" filter="url(#grain302)"/>
<rect x="0" y="0" width="1600" height="1200" fill="url(#vig302)"/>
</svg>