<svg xmlns="http://www.w3.org/2000/svg" viewBox="0 0 1600 1200" width="1600" height="1200" preserveAspectRatio="xMidYMid slice">
<defs>

<linearGradient id="sky201" x1="0" y1="0" x2="0" y2="1">
<stop offset="0%" stop-color="#f4e2b8"/><stop offset="100%" stop-color="#e0a15f"/>
</linearGradient>

<filter id="grain201"><feTurbulence type="fractalNoise" baseFrequency="0.85" numOctaves="2" seed="201" stitchTiles="stitch" result="noise"/><feColorMatrix in="noise" type="matrix" values="0 0 0 0 0  0 0 0 0 0  0 0 0 0 0  0 0 0 0.035 0"/></filter>
<radialGradient id="vig201" cx="50%" cy="42%" r="75%"><stop offset="55%" stop-color="#000" stop-opacity="0"/><stop offset="100%" stop-color="#000" stop-opacity="0.30"/></radialGradient>
</defs>

<rect x="0" y="0" width="1600" height="744.0" fill="url(#sky201)"/>
<rect x="0" y="744.0" width="1600" height="456.0" fill="#3d6a63"/>
<path d="M107.36361401504607 892.4733967757008 Q100.8475569840817 854.6058597988905 94.33149995311733 831.8853376128043" stroke="#6b5a2e" stroke-width="4.258080147940475" fill="none" stroke-linecap="round" opacity="0.7275506308144064"/><path d="M751.7946436490769 1087.6833427804777 Q762.7346121514133 1005.0811290980985 773.6745806537499 955.5198008886709" stroke="#6b5a2e" stroke-width="3.830064046549847" fill="none" stroke-linecap="round" opacity="0.5058525858035747"/><path d="M906.7512629601747 961.4111897676754 Q898.203507161142 870.3345018731925 889.6557513621094 815.6884891365028" stroke="#6b5a2e" stroke-width="4.08588085897533" fill="none" stroke-linecap="round" opacity="0.5255358338766152"/><path d="M479.2163027224667 853.2667966982674 Q469.63881464004294 789.0798698081776 460.06132655761917 750.5677136741238" stroke="#6b5a2e" stroke-width="4.259433809270134" fill="none" stroke-linecap="round" opacity="0.7162194243563584"/><path d="M48.676155852270675 1006.4238939182856 Q52.981984822807505 961.1129378570607 57.28781379334433 933.9263642203258" stroke="#6b5a2e" stroke-width="3.222116384667946" fill="none" stroke-linecap="round" opacity="0.6654295469396748"/><path d="M1218.6130998934918 1099.1360581399178 Q1212.4166902400389 993.3578939142642 1206.220280586586 929.890995378872" stroke="#6b5a2e" stroke-width="2.2835108286563024" fill="none" stroke-linecap="round" opacity="0.68346866164255"/><path d="M855.3365868009937 1151.2407836909929 Q845.9628159299683 1025.5706215669888 836.5890450589429 950.1685242925865" stroke="#6b5a2e" stroke-width="3.2334174910354596" fill="none" stroke-linecap="round" opacity="0.7341774673483166"/><path d="M669.9937686956847 1184.5587274670954 Q667.4047079137063 1145.7172681615389 664.8156471317279 1122.412392578205" stroke="#6b5a2e" stroke-width="4.52862511678082" fill="none" stroke-linecap="round" opacity="0.829337263848476"/><path d="M809.3447686724429 858.799833412623 Q803.9089379691711 762.1373637361091 798.4731072658992 704.1398819302008" stroke="#6b5a2e" stroke-width="4.08966781054156" fill="none" stroke-linecap="round" opacity="0.5869379756607968"/><path d="M307.02817799938435 1011.949164150463 Q306.7262840723764 897.3201747669666 306.4243901453685 828.5427811368687" stroke="#6b5a2e" stroke-width="3.7786754658695707" fill="none" stroke-linecap="round" opacity="0.6782199735397654"/><path d="M838.8870816357972 746.7207273934633 Q850.0922632441179 671.9558412606509 861.2974448524385 627.0969095809635" stroke="#6b5a2e" stroke-width="3.5350285137917434" fill="none" stroke-linecap="round" opacity="0.7633694859679978"/><path d="M1527.4454021826975 761.0382433841023 Q1527.1173757209706 650.7294991006008 1526.7893492592439 584.5442525304999" stroke="#6b5a2e" stroke-width="2.007373996812646" fill="none" stroke-linecap="round" opacity="0.5375455699570993"/><path d="M789.4502970478541 954.3068005666298 Q785.105690055067 829.7494563122808 780.7610830622801 755.0150497596713" stroke="#6b5a2e" stroke-width="4.362863886417397" fill="none" stroke-linecap="round" opacity="0.6144796607034179"/><path d="M1508.95952190532 1189.544815436528 Q1518.4856319783935 1135.8645710069682 1528.0117420514669 1103.656424349232" stroke="#6b5a2e" stroke-width="2.3386471319239557" fill="none" stroke-linecap="round" opacity="0.5842044025724603"/><path d="M1417.029182414875 941.783976942759 Q1402.1720958590627 902.2435752609948 1387.31500930325 878.5193342519362" stroke="#6b5a2e" stroke-width="4.961025237205167" fill="none" stroke-linecap="round" opacity="0.793561195727545"/><path d="M1542.5061690080213 899.3235649292136 Q1548.0775022489106 831.3082871655463 1553.6488354898 790.4991205073459" stroke="#6b5a2e" stroke-width="2.147442514239014" fill="none" stroke-linecap="round" opacity="0.689714503121549"/><path d="M245.97643404058437 829.0652821646217 Q238.1112265678987 715.9169725338658 230.24601909521306 648.0279867554123" stroke="#6b5a2e" stroke-width="4.966823491599691" fill="none" stroke-linecap="round" opacity="0.7176355802594168"/><path d="M960.0015864856002 1037.0879510725345 Q973.7347345981192 975.6635607153637 987.467882710638 938.8089265010611" stroke="#6b5a2e" stroke-width="2.120369617100991" fill="none" stroke-linecap="round" opacity="0.8130327575035966"/><path d="M852.6696570593268 1018.5964198235049 Q849.3140403110164 926.6937580453516 845.9584235627059 871.5521609784596" stroke="#6b5a2e" stroke-width="2.498721948986294" fill="none" stroke-linecap="round" opacity="0.590754988151224"/><path d="M1024.4536699439382 885.9638907239415 Q1030.2479395749724 768.8852794366151 1036.0422092060066 698.6381126642192" stroke="#6b5a2e" stroke-width="2.0893555260429117" fill="none" stroke-linecap="round" opacity="0.4871482974141014"/><path d="M1355.0717149651523 987.7974204380246 Q1355.94850651582 936.9580308147464 1356.825298066488 906.4543970407796" stroke="#6b5a2e" stroke-width="3.648395016653543" fill="none" stroke-linecap="round" opacity="0.7331530969485625"/><path d="M762.9953166049552 1168.4057196663061 Q774.62033994353 1129.4158570335246 786.2453632821048 1106.0219394538558" stroke="#6b5a2e" stroke-width="4.120539368973287" fill="none" stroke-linecap="round" opacity="0.6006587143422528"/><path d="M163.3667313397771 809.9412436377985 Q168.34514041579544 702.10075643589 173.32354949181382 637.396464114745" stroke="#6b5a2e" stroke-width="3.5896050663974806" fill="none" stroke-linecap="round" opacity="0.48318017205532965"/><path d="M161.52653077688655 965.7444581433108 Q155.36325551780217 917.4618033922243 149.1999802587178 888.4922105415723" stroke="#6b5a2e" stroke-width="2.0796026995115886" fill="none" stroke-linecap="round" opacity="0.5404608248537672"/><path d="M883.0157983550711 1110.7544609357183 Q877.0009881930944 1071.8673240366115 870.9861780311177 1048.5350418971477" stroke="#6b5a2e" stroke-width="2.9946741815836866" fill="none" stroke-linecap="round" opacity="0.5379713801502934"/><path d="M652.7113441645332 744.3685451147356 Q645.6520562686899 687.9942732384155 638.5927683728465 654.1697101126235" stroke="#6b5a2e" stroke-width="4.568495058756249" fill="none" stroke-linecap="round" opacity="0.5693668996870125"/><path d="M1103.97441515251 1092.5034571425667 Q1101.9835494326758 985.6235162270578 1099.9926837128417 921.4955516777526" stroke="#6b5a2e" stroke-width="2.943170694210585" fill="none" stroke-linecap="round" opacity="0.6600471638940775"/><path d="M575.4705173434104 883.5973750313841 Q562.190010369678 808.8126047120305 548.9095033959458 763.9417425204183" stroke="#6b5a2e" stroke-width="3.813235057175846" fill="none" stroke-linecap="round" opacity="0.6096752257330547"/><path d="M96.86379964594369 898.3678608158639 Q96.88830152351616 854.4409757568551 96.91280340108865 828.0848447214497" stroke="#6b5a2e" stroke-width="3.650094503672421" fill="none" stroke-linecap="round" opacity="0.8385722251216783"/><path d="M241.93943709681403 1004.8615041975368 Q234.21409957760972 888.2205607986842 226.48876205840537 818.2359947593727" stroke="#6b5a2e" stroke-width="3.3584686072521572" fill="none" stroke-linecap="round" opacity="0.6830886047209004"/><path d="M179.1905400930121 947.9476625683743 Q191.51994710990127 820.0751925657139 203.84935412679047 743.3517105641176" stroke="#6b5a2e" stroke-width="4.72600969123342" fill="none" stroke-linecap="round" opacity="0.45528423964591364"/><path d="M1070.9160860659283 1080.356004633693 Q1063.0688147186129 1011.4112181865145 1055.2215433712975 970.0443463182074" stroke="#6b5a2e" stroke-width="4.030318005779718" fill="none" stroke-linecap="round" opacity="0.5892209097279173"/><path d="M1463.2565431820708 888.9358043464811 Q1469.2308891159619 764.8523845136716 1475.2052350498532 690.4023326139859" stroke="#6b5a2e" stroke-width="3.155393957665747" fill="none" stroke-linecap="round" opacity="0.7356421286358494"/><path d="M1440.7026136312313 1073.1302757729313 Q1429.2000137044831 1007.4480393369643 1417.6974137777352 968.0386974753841" stroke="#6b5a2e" stroke-width="3.7826252010160766" fill="none" stroke-linecap="round" opacity="0.7543251518959697"/><path d="M978.4650191853186 850.8490090742365 Q984.7145029172372 747.9169265159434 990.9639866491557 686.1576769809675" stroke="#6b5a2e" stroke-width="3.1731476960766365" fill="none" stroke-linecap="round" opacity="0.7279337885417887"/><path d="M1076.6721398353397 1182.1358901607477 Q1090.2418950971046 1142.7857534916516 1103.8116503588694 1119.175671490194" stroke="#6b5a2e" stroke-width="4.175089280866002" fill="none" stroke-linecap="round" opacity="0.504254348186854"/><path d="M263.5743696356338 914.1034042422731 Q266.05474379820066 815.130147952504 268.5351179607676 755.7461941786424" stroke="#6b5a2e" stroke-width="3.249719327103513" fill="none" stroke-linecap="round" opacity="0.7928865241285745"/><path d="M839.2091347652985 1016.1582652353777 Q849.3653792263364 908.5222172262606 859.5216236873742 843.9405884207904" stroke="#6b5a2e" stroke-width="2.4780837880505593" fill="none" stroke-linecap="round" opacity="0.48259359407314195"/><path d="M753.2851779524071 1123.3647761035231 Q754.4782211844972 996.6465379957765 755.6712644165873 920.6155951311287" stroke="#6b5a2e" stroke-width="2.4464446956852552" fill="none" stroke-linecap="round" opacity="0.70593609543446"/><path d="M1359.2092607524514 1086.324947072148 Q1345.6397508849482 1031.2402808370975 1332.0702410174447 998.1894810960673" stroke="#6b5a2e" stroke-width="3.3899627966561034" fill="none" stroke-linecap="round" opacity="0.5450317950936413"/><path d="M514.6497275946517 1085.2503593834786 Q516.773749352119 970.9561533200431 518.8977711095863 902.3796296819819" stroke="#6b5a2e" stroke-width="4.748459062719466" fill="none" stroke-linecap="round" opacity="0.7334001535637306"/><path d="M253.0737947982205 926.2747198198609 Q267.6336989490909 858.7715932081015 282.1936030999613 818.269717241046" stroke="#6b5a2e" stroke-width="3.2735731013125364" fill="none" stroke-linecap="round" opacity="0.5586540550619832"/><path d="M1364.1504841863316 1179.6878907514226 Q1357.8670493979812 1105.8376664792122 1351.5836146096306 1061.527531915886" stroke="#6b5a2e" stroke-width="2.9610432186057523" fill="none" stroke-linecap="round" opacity="0.46768974969199356"/><path d="M1034.0261476901217 754.8150784522413 Q1043.5754589757703 617.870851706014 1053.124770261419 535.7043156582777" stroke="#6b5a2e" stroke-width="3.15881770265878" fill="none" stroke-linecap="round" opacity="0.6844500082854008"/><path d="M1334.2152908406958 797.5316899868468 Q1344.8836872358588 692.1554398779753 1355.5520836310216 628.9296898126524" stroke="#6b5a2e" stroke-width="3.5429461104974997" fill="none" stroke-linecap="round" opacity="0.7999907854041052"/><path d="M396.2355600014769 745.1166315732811 Q411.1168623511503 684.5445513580588 425.9981647008237 648.2013032289254" stroke="#6b5a2e" stroke-width="3.0174479195341135" fill="none" stroke-linecap="round" opacity="0.5803675027959561"/><path d="M111.60963122419005 922.6265394014031 Q111.48104887249703 860.4305467189239 111.352466520804 823.1129511094364" stroke="#6b5a2e" stroke-width="2.0962919167713436" fill="none" stroke-linecap="round" opacity="0.49387813839270556"/><path d="M28.37650240229692 1169.2267359784466 Q19.782533104240677 1054.260865817019 11.188563806184437 985.2813437201626" stroke="#6b5a2e" stroke-width="2.8885073923705464" fill="none" stroke-linecap="round" opacity="0.5425426518429752"/><path d="M793.12216882709 977.1707467001206 Q796.6972883213506 867.3289695888511 800.272407815611 801.4239033220894" stroke="#6b5a2e" stroke-width="2.1204253501028507" fill="none" stroke-linecap="round" opacity="0.6849674335531661"/><path d="M49.418480770196815 939.2129496727315 Q45.319758748166564 896.1270917627395 41.22103672613632 870.2755770167443" stroke="#6b5a2e" stroke-width="2.453927337894628" fill="none" stroke-linecap="round" opacity="0.7303131306147146"/><path d="M651.933184459736 1095.5601197691396 Q644.3486020467317 1050.1371423462094 636.7640196337275 1022.8833558924514" stroke="#6b5a2e" stroke-width="3.4815610088115516" fill="none" stroke-linecap="round" opacity="0.639351438224699"/><path d="M175.35291356285754 1030.7099800521828 Q185.65972083244472 937.811016711823 195.9665281020319 882.071638707607" stroke="#6b5a2e" stroke-width="4.92353228138375" fill="none" stroke-linecap="round" opacity="0.7572577490924359"/><path d="M434.39191006426745 1037.276852572833 Q420.40317793450987 952.7888273895916 406.4144458047523 902.0960122796467" stroke="#6b5a2e" stroke-width="3.8193408246059453" fill="none" stroke-linecap="round" opacity="0.5558298646447923"/><path d="M368.33618992550913 1032.0815180471661 Q381.3099358404259 972.0163725156416 394.2836817553427 935.9772851967268" stroke="#6b5a2e" stroke-width="4.707353204658091" fill="none" stroke-linecap="round" opacity="0.5215087498709166"/><path d="M1563.9673197212408 826.3100622887728 Q1575.8323810373217 725.7679591068934 1587.697442353403 665.4426971977657" stroke="#6b5a2e" stroke-width="2.990339169427509" fill="none" stroke-linecap="round" opacity="0.7643241084508485"/><path d="M778.9521618931511 842.6827751084727 Q778.9832063124393 724.0837267552724 779.0142507317274 652.9242977433523" stroke="#6b5a2e" stroke-width="4.321742047561698" fill="none" stroke-linecap="round" opacity="0.8108904144482285"/><path d="M663.8513372922158 1195.7267994716058 Q670.2808385715907 1084.0376753078094 676.7103398509657 1017.0242008095314" stroke="#6b5a2e" stroke-width="3.6657461370961215" fill="none" stroke-linecap="round" opacity="0.7639290549451565"/><path d="M201.34544357366818 808.3127861528501 Q213.0397599075732 689.5953033981741 224.73407624147822 618.3648137453686" stroke="#6b5a2e" stroke-width="4.045827590913645" fill="none" stroke-linecap="round" opacity="0.7976750583030243"/><path d="M1455.6217994382916 1158.094712452954 Q1452.5514748178757 1029.4732745296217 1449.4811501974598 952.3004117756223" stroke="#6b5a2e" stroke-width="2.1351524940305713" fill="none" stroke-linecap="round" opacity="0.5978399399863491"/><path d="M1362.1985359862301 1038.7861918078515 Q1354.3406941516175 987.0490069438987 1346.4828523170052 956.0066960255269" stroke="#6b5a2e" stroke-width="3.204743398863011" fill="none" stroke-linecap="round" opacity="0.46917387632911395"/><path d="M1135.7889834063349 970.1412520493614 Q1143.5724195406851 838.8217999426332 1151.3558556750356 760.0301286785963" stroke="#6b5a2e" stroke-width="3.3151472246749014" fill="none" stroke-linecap="round" opacity="0.5190451685613903"/><path d="M934.3639541210902 1197.357768835295 Q924.7397406738462 1083.6644885868202 915.1155272266021 1015.4485204377352" stroke="#6b5a2e" stroke-width="2.3986870614548703" fill="none" stroke-linecap="round" opacity="0.5118526410378442"/><path d="M828.0205834221637 776.8763841807981 Q827.9159022453604 648.5455466290899 827.8112210685572 571.547044098065" stroke="#6b5a2e" stroke-width="3.613251274468236" fill="none" stroke-linecap="round" opacity="0.7120325100167719"/><path d="M659.594821311937 1016.0596642804602 Q672.7520506917621 973.5153352186792 685.9092800715872 947.9887377816106" stroke="#6b5a2e" stroke-width="4.969041601920258" fill="none" stroke-linecap="round" opacity="0.8298411080042358"/><path d="M730.4149261142672 779.7127674119348 Q731.9988661230055 731.3876330528018 733.5828061317438 702.3925524373219" stroke="#6b5a2e" stroke-width="3.238026761216258" fill="none" stroke-linecap="round" opacity="0.662357167253713"/><path d="M1278.4579956540156 1174.5989854808874 Q1286.109854258436 1069.4592105581637 1293.761712862856 1006.3753456045293" stroke="#6b5a2e" stroke-width="3.802292837630896" fill="none" stroke-linecap="round" opacity="0.6708427501077968"/><path d="M589.2810259088543 880.0451899770688 Q597.128630799811 745.8103609677787 604.9762356907678 665.2694635622047" stroke="#6b5a2e" stroke-width="3.974083202519658" fill="none" stroke-linecap="round" opacity="0.46885989165133973"/><path d="M1277.473169495341 891.513957434354 Q1274.8392376789386 817.9331648653952 1272.2053058625363 773.7846893240198" stroke="#6b5a2e" stroke-width="4.274553517238588" fill="none" stroke-linecap="round" opacity="0.5329913659518465"/><path d="M896.9830502799974 778.1651018103232 Q888.661765584243 665.7683952686918 880.3404808884885 598.3303713437131" stroke="#6b5a2e" stroke-width="4.383603055687429" fill="none" stroke-linecap="round" opacity="0.5558203940944076"/><path d="M807.7403573372495 746.3922111083505 Q794.1463978365639 683.4953903695488 780.5524383358782 645.7572979262677" stroke="#6b5a2e" stroke-width="2.604869160984952" fill="none" stroke-linecap="round" opacity="0.6160159193083621"/><path d="M39.55384909302193 953.6846721392727 Q34.89508368220969 903.9809328903809 30.236318271397447 874.1586893410458" stroke="#6b5a2e" stroke-width="2.157284631947931" fill="none" stroke-linecap="round" opacity="0.630168575812557"/><path d="M624.9333031326048 937.3111333693676 Q613.4819717920997 842.3403235885476 602.0306404515946 785.3578377200556" stroke="#6b5a2e" stroke-width="4.7109351812829265" fill="none" stroke-linecap="round" opacity="0.5360709239088478"/><path d="M14.100974436041014 1074.926897935684 Q12.180366466000983 954.8923344127791 10.259758495960952 882.871596299036" stroke="#6b5a2e" stroke-width="4.955501659614633" fill="none" stroke-linecap="round" opacity="0.6827164852049736"/><path d="M381.07011053353455 762.7596320007028 Q387.3521381660056 653.6543461113207 393.6341657984767 588.1911745776913" stroke="#6b5a2e" stroke-width="4.770727712570373" fill="none" stroke-linecap="round" opacity="0.5570485209253615"/><path d="M1599.329058916761 1142.0157357031112 Q1594.917653350115 1056.2474319608982 1590.5062477834692 1004.7864497155706" stroke="#6b5a2e" stroke-width="2.589476190914753" fill="none" stroke-linecap="round" opacity="0.7045847079809104"/><path d="M817.040398313547 1129.5974900396204 Q818.5043875354006 1074.429365896325 819.9683767572542 1041.3284914103476" stroke="#6b5a2e" stroke-width="3.57889525704947" fill="none" stroke-linecap="round" opacity="0.47103373050307784"/><path d="M37.40694573862964 1052.251649302967 Q36.951412198785405 925.2121942836438 36.49587865894117 848.9885212720499" stroke="#6b5a2e" stroke-width="2.368431879204026" fill="none" stroke-linecap="round" opacity="0.8310501624089306"/><path d="M547.5662621879499 901.2794190750931 Q541.7692928217538 837.6769681043552 535.9723234555577 799.5154975219125" stroke="#6b5a2e" stroke-width="3.9672504581719448" fill="none" stroke-linecap="round" opacity="0.6408796600528216"/><path d="M1053.517042283946 1034.935785419049 Q1047.111768371005 927.9606742029308 1040.7064944580638 863.7756074732599" stroke="#6b5a2e" stroke-width="4.470824351327606" fill="none" stroke-linecap="round" opacity="0.4582709837156133"/><path d="M512.4040683782157 999.3190833005697 Q521.4675853512812 870.2949638833607 530.5311023243465 792.8804922330353" stroke="#6b5a2e" stroke-width="4.924365956483948" fill="none" stroke-linecap="round" opacity="0.46085467463595403"/><path d="M564.0001019276999 1102.247580821713 Q567.4056728471444 1008.8134628357294 570.8112437665889 952.7529920441392" stroke="#6b5a2e" stroke-width="4.983179528074076" fill="none" stroke-linecap="round" opacity="0.758253746744676"/><path d="M317.7368743938377 771.1246939627306 Q327.9368496170805 680.1537699497173 338.13682484032336 625.5712155419095" stroke="#6b5a2e" stroke-width="3.0093797242935887" fill="none" stroke-linecap="round" opacity="0.7953608712164291"/><path d="M327.29598519549035 766.0301945549467 Q314.6266083758562 703.803997416691 301.9572315562221 666.4682791337377" stroke="#6b5a2e" stroke-width="4.0965282406616605" fill="none" stroke-linecap="round" opacity="0.7275313117672788"/><path d="M702.0185355104081 1133.5382504336644 Q687.6833419620192 1025.5438030354492 673.3481484136302 960.7471345965201" stroke="#6b5a2e" stroke-width="3.2226207802454714" fill="none" stroke-linecap="round" opacity="0.5190083432677621"/><path d="M390.3101628883336 861.1767387664433 Q396.1984604373675 794.5362209660242 402.0867579864014 754.5519102857727" stroke="#6b5a2e" stroke-width="4.975497833729678" fill="none" stroke-linecap="round" opacity="0.5541811448143759"/><path d="M888.7795452044779 994.1997582604422 Q887.759050954703 909.2178101188333 886.7385567049281 858.2286412338678" stroke="#6b5a2e" stroke-width="3.09639832728998" fill="none" stroke-linecap="round" opacity="0.6699663589743382"/><path d="M1337.9765794701402 802.7349425771001 Q1330.815433181375 763.5553968328285 1323.65428689261 740.0476693862654" stroke="#6b5a2e" stroke-width="3.9674321401566974" fill="none" stroke-linecap="round" opacity="0.49333147195331345"/><path d="M848.8174704820956 935.2714968398619 Q855.4053846831007 882.4123167063782 861.9932988841057 850.696808626288" stroke="#6b5a2e" stroke-width="4.3841138692745965" fill="none" stroke-linecap="round" opacity="0.8183421692401862"/><path d="M879.1527539423959 1036.0479212594637 Q893.7989397395253 946.3558878277742 908.4451255366548 892.5406677687604" stroke="#6b5a2e" stroke-width="3.004044708808139" fill="none" stroke-linecap="round" opacity="0.5837723415827881"/><path d="M859.4082878824356 1004.6551374048126 Q853.2182536455377 961.6740100862745 847.0282194086399 935.8853336951518" stroke="#6b5a2e" stroke-width="4.153888629147903" fill="none" stroke-linecap="round" opacity="0.7732051970547071"/><path d="M679.0269704859428 831.1616285340748 Q690.1522197755282 753.3226155715089 701.2774690651137 706.6192077939694" stroke="#6b5a2e" stroke-width="3.922938168793577" fill="none" stroke-linecap="round" opacity="0.5834054463940852"/><path d="M521.1713994035673 997.979187869814 Q507.13272405333225 916.1583258136179 493.09404870309726 867.0658085799004" stroke="#6b5a2e" stroke-width="4.684605774123467" fill="none" stroke-linecap="round" opacity="0.4842923690196946"/><path d="M1156.2578032901395 889.7233231611015 Q1152.1767816728932 817.6256321105928 1148.0957600556467 774.3670174802876" stroke="#6b5a2e" stroke-width="2.083612602839091" fill="none" stroke-linecap="round" opacity="0.5035400889628291"/><path d="M554.0473009990018 808.7899558030008 Q539.4600359268078 762.794039471258 524.8727708546138 735.1964896722122" stroke="#6b5a2e" stroke-width="2.9320150082166463" fill="none" stroke-linecap="round" opacity="0.7352006355151809"/><path d="M76.9858523322899 1110.315808031966 Q66.83167363912136 995.8245194412032 56.67749494595283 927.1297462867453" stroke="#6b5a2e" stroke-width="3.5815503396197657" fill="none" stroke-linecap="round" opacity="0.5409052161197262"/><path d="M1543.128902376246 745.7519804805034 Q1531.8596390189973 661.0879391703143 1520.5903756617483 610.2895143842007" stroke="#6b5a2e" stroke-width="4.383812109056894" fill="none" stroke-linecap="round" opacity="0.5289884799005004"/><path d="M87.48579550703468 802.4723886016029 Q72.53842179093105 667.5524003289979 57.59104807482743 586.600407365435" stroke="#6b5a2e" stroke-width="3.949902388182841" fill="none" stroke-linecap="round" opacity="0.6912495126570076"/><path d="M461.8310938142678 1162.7482730523827 Q463.4092925479847 1067.1827980705852 464.9874912817017 1009.8435130815067" stroke="#6b5a2e" stroke-width="2.0943916611885287" fill="none" stroke-linecap="round" opacity="0.6558955312509333"/><path d="M311.9117628812406 953.5663173835901 Q326.28070759216314 909.5138937392635 340.64965230308576 883.0824395526676" stroke="#6b5a2e" stroke-width="4.402132947880673" fill="none" stroke-linecap="round" opacity="0.5714359687404466"/><path d="M603.7144073200468 839.7910135203276 Q601.5490304670635 790.1604911856172 599.3836536140802 760.3821777847908" stroke="#6b5a2e" stroke-width="3.136115500079325" fill="none" stroke-linecap="round" opacity="0.5427965340487386"/><path d="M1259.43477959849 1084.4670079822577 Q1265.4069143212614 950.6392316790365 1271.379049044033 870.3425658971038" stroke="#6b5a2e" stroke-width="3.8405399016804287" fill="none" stroke-linecap="round" opacity="0.5580320496379273"/><path d="M1252.2669044756672 988.2429247303706 Q1264.0896740794556 886.1944287173658 1275.9124436832442 824.965331109563" stroke="#6b5a2e" stroke-width="3.130761685556938" fill="none" stroke-linecap="round" opacity="0.682829029945615"/><path d="M495.087301518064 907.8964115410782 Q488.1616210961959 798.2006511971001 481.23594067432776 732.3831949907133" stroke="#6b5a2e" stroke-width="3.9336481301797184" fill="none" stroke-linecap="round" opacity="0.794309662736973"/><path d="M424.3183093089289 1116.2555741162491 Q435.8030781167694 1009.2373618535812 447.28784692460994 945.0264344959805" stroke="#6b5a2e" stroke-width="3.734691043555955" fill="none" stroke-linecap="round" opacity="0.8475106436071096"/><path d="M1199.3581633200417 1153.9301142670568 Q1186.865829710862 1023.3060779464157 1174.3734961016826 944.9316561540311" stroke="#6b5a2e" stroke-width="2.579963343405556" fill="none" stroke-linecap="round" opacity="0.8320629475343044"/><path d="M1106.892328439168 1152.317571852263 Q1115.448498014098 1093.0441557485105 1124.004667589028 1057.4801060862592" stroke="#6b5a2e" stroke-width="2.2913054148142975" fill="none" stroke-linecap="round" opacity="0.8112980221088049"/><path d="M89.41530420857724 1060.6475725251196 Q97.76991882895155 1018.3087898167396 106.12453344932585 992.9055201917117" stroke="#6b5a2e" stroke-width="3.954319653258262" fill="none" stroke-linecap="round" opacity="0.4846824537621649"/><path d="M67.16814361187282 951.1079615201343 Q64.33827355446367 849.3615347261151 61.50840349705453 788.3136786497037" stroke="#6b5a2e" stroke-width="4.7016027156320295" fill="none" stroke-linecap="round" opacity="0.7627194643373306"/><path d="M597.9546083259303 1057.2447776262454 Q592.283994584393 952.506672771061 586.6133808428557 889.6638098579501" stroke="#6b5a2e" stroke-width="4.999329846657209" fill="none" stroke-linecap="round" opacity="0.7496273942244787"/><path d="M161.87057478064358 1136.3253186513343 Q175.9304675626235 1073.1140885770117 189.99036034460343 1035.187350532418" stroke="#6b5a2e" stroke-width="2.1852401355629745" fill="none" stroke-linecap="round" opacity="0.6256299635937108"/><path d="M170.01759835128425 782.7348534029871 Q170.82174873401303 718.8802737211167 171.6258991167418 680.5675259119946" stroke="#6b5a2e" stroke-width="2.9482276879727234" fill="none" stroke-linecap="round" opacity="0.7936335565770414"/><path d="M837.7699201005981 935.3859375581516 Q826.305209209515 888.7940021237437 814.8404983184321 860.8388408630989" stroke="#6b5a2e" stroke-width="3.5432176035287437" fill="none" stroke-linecap="round" opacity="0.6171893162003693"/><path d="M60.91607501979741 1157.631062518029 Q48.5929711214598 1054.175628331573 36.269867223122176 992.1023678196997" stroke="#6b5a2e" stroke-width="4.2766671119059065" fill="none" stroke-linecap="round" opacity="0.6502276630666156"/><path d="M823.5865496166685 898.8548480659289 Q832.6099890359878 853.8532705164049 841.6334284553071 826.8523239866905" stroke="#6b5a2e" stroke-width="3.8827206561693393" fill="none" stroke-linecap="round" opacity="0.5061973410888941"/><path d="M1324.8899730838505 1053.135188244206 Q1319.4118356683862 951.6070884655122 1313.933698252922 890.690228598296" stroke="#6b5a2e" stroke-width="3.164183686231255" fill="none" stroke-linecap="round" opacity="0.8266154209591672"/><path d="M286.246385800786 1195.3208268629344 Q281.50842531407744 1105.474408432632 276.77046482736887 1051.5665573744504" stroke="#6b5a2e" stroke-width="3.8719918827854567" fill="none" stroke-linecap="round" opacity="0.7284327718924823"/><path d="M905.5256378206824 1136.199265636304 Q899.555455541882 1014.3500696355337 893.5852732630815 941.2405520350715" stroke="#6b5a2e" stroke-width="2.6829153206190814" fill="none" stroke-linecap="round" opacity="0.6426894194963026"/><path d="M75.12085307115193 991.0773425520413 Q82.37895058591081 938.367465378002 89.6370481006697 906.7415390735783" stroke="#6b5a2e" stroke-width="4.143914388416175" fill="none" stroke-linecap="round" opacity="0.626542953005649"/><path d="M745.084649549631 1181.7679395015828 Q748.8213381884444 1076.8839652635268 752.5580268272579 1013.9535807206933" stroke="#6b5a2e" stroke-width="3.361291947028824" fill="none" stroke-linecap="round" opacity="0.8090098414789721"/><path d="M93.746997860986 980.848595496456 Q101.60061222358647 872.4741057463403 109.45422658618693 807.4494118962709" stroke="#6b5a2e" stroke-width="3.752804014486094" fill="none" stroke-linecap="round" opacity="0.7809304482515309"/><path d="M305.2994662077692 1002.8717460076471 Q294.54483222184587 888.6850205996545 283.7901982359225 820.1729853548591" stroke="#6b5a2e" stroke-width="4.655006007301777" fill="none" stroke-linecap="round" opacity="0.47466293573193263"/><path d="M378.9501965722266 1039.2745721078522 Q371.7906545197471 921.2469357508359 364.63111246726754 850.430353936626" stroke="#6b5a2e" stroke-width="3.596457653944518" fill="none" stroke-linecap="round" opacity="0.6423178362365737"/><path d="M405.71860334141866 1103.2939649689215 Q400.6258474641784 970.8125015916437 395.53309158693816 891.323623565277" stroke="#6b5a2e" stroke-width="4.996906314776986" fill="none" stroke-linecap="round" opacity="0.6374031393883312"/><path d="M734.4435602204584 959.3415320278666 Q731.9979251103177 844.8609560137195 729.5522900001771 776.1726104052311" stroke="#6b5a2e" stroke-width="4.188524210198149" fill="none" stroke-linecap="round" opacity="0.5974947053638949"/><path d="M536.3363895599083 1146.3088292720654 Q543.8294123624053 1108.691347516855 551.3224351649021 1086.1208584637288" stroke="#6b5a2e" stroke-width="3.2308138686798147" fill="none" stroke-linecap="round" opacity="0.822305398096205"/><path d="M117.2340747196115 1086.5716842903278 Q109.07963109201484 1005.5010860002267 100.92518746441817 956.858727026166" stroke="#6b5a2e" stroke-width="2.5808995416031077" fill="none" stroke-linecap="round" opacity="0.8345361701784841"/><path d="M1508.2012427435252 775.9087181805963 Q1496.7437090718047 711.5596832680146 1485.2861754000842 672.9502623204655" stroke="#6b5a2e" stroke-width="3.3446286776793492" fill="none" stroke-linecap="round" opacity="0.7178270657613441"/><path d="M882.6931644344686 931.9511174438496 Q895.1271733940188 873.3684939708131 907.5611823535689 838.2189198869912" stroke="#6b5a2e" stroke-width="2.7384313725813887" fill="none" stroke-linecap="round" opacity="0.8235310990829663"/><path d="M438.6460171116861 1160.5037437597425 Q424.0398797557819 1042.6591214757204 409.4337423998777 971.9523481053071" stroke="#6b5a2e" stroke-width="2.3035743691578743" fill="none" stroke-linecap="round" opacity="0.6800069456135791"/><path d="M625.8777158583641 789.6034124764055 Q614.5416596786778 715.7871881126164 603.2056034989915 671.497453494343" stroke="#6b5a2e" stroke-width="3.7177836177629424" fill="none" stroke-linecap="round" opacity="0.8404045262191716"/><path d="M715.884547912221 754.4028526578625 Q723.5637732496065 678.8650208391739 731.242998586992 633.5423217479607" stroke="#6b5a2e" stroke-width="2.7407768201279477" fill="none" stroke-linecap="round" opacity="0.6485248371616863"/><path d="M1494.5747158057109 847.3648208980053 Q1499.353834323439 765.0394972069131 1504.1329528411673 715.6443029922578" stroke="#6b5a2e" stroke-width="2.560084721611348" fill="none" stroke-linecap="round" opacity="0.747775638630594"/><path d="M767.4791591785148 856.7101457620523 Q773.8156856463428 758.4202369450263 780.1522121141708 699.4462916548108" stroke="#6b5a2e" stroke-width="3.8099378005625546" fill="none" stroke-linecap="round" opacity="0.7146909360068542"/><path d="M1152.7119403834772 1009.9136153905179 Q1154.1287173034925 935.4933173450482 1155.5454942235078 890.8411385177665" stroke="#6b5a2e" stroke-width="2.4947800172867556" fill="none" stroke-linecap="round" opacity="0.6214436608799733"/><path d="M690.371411815433 1041.0691129277989 Q692.016951050422 913.5715012603023 693.662490285411 837.0729342598042" stroke="#6b5a2e" stroke-width="2.0008029757590933" fill="none" stroke-linecap="round" opacity="0.8497544824100529"/><path d="M699.5279926645102 1075.2758576845604 Q692.2044461413816 991.9883968445699 684.8808996182529 942.0159203405757" stroke="#6b5a2e" stroke-width="4.338513756014512" fill="none" stroke-linecap="round" opacity="0.6894692797144568"/><path d="M107.2437843759241 1118.7967342238242 Q101.44345982075738 1008.3949253022388 95.64313526559069 942.1538399492877" stroke="#6b5a2e" stroke-width="3.4767451578855137" fill="none" stroke-linecap="round" opacity="0.5649973436056673"/><path d="M83.834330922482 933.7391128794338 Q75.31947282641771 848.7165419131645 66.80461473035342 797.7029993334029" stroke="#6b5a2e" stroke-width="2.496671176770868" fill="none" stroke-linecap="round" opacity="0.533394815588827"/><path d="M790.2967381307342 744.0285619012922 Q800.4085288358482 685.176967979423 810.5203195409622 649.8660116263015" stroke="#6b5a2e" stroke-width="2.815373221691507" fill="none" stroke-linecap="round" opacity="0.7537082459186251"/><path d="M1427.821251293945 965.6254678252266 Q1430.907390638755 897.9887869502126 1433.9935299835652 857.4067784252043" stroke="#6b5a2e" stroke-width="2.7049248607794527" fill="none" stroke-linecap="round" opacity="0.4826069018745555"/>

<rect x="0" y="0" width="1600" height="1200" filter="url(#grain201)"/>
<rect x="0" y="0" width="1600" height="1200" fill="url(#vig201)"/>
</svg>