<svg xmlns="http://www.w3.org/2000/svg" viewBox="0 0 1600 1200" width="1600" height="1200" preserveAspectRatio="xMidYMid slice">
<defs>

<linearGradient id="sky204" x1="0" y1="0" x2="0" y2="1">
<stop offset="0%" stop-color="#e9d3ac"/><stop offset="100%" stop-color="#cf8f5c"/>
</linearGradient>

<filter id="grain204"><feTurbulence type="fractalNoise" baseFrequency="0.85" numOctaves="2" seed="204" stitchTiles="stitch" result="noise"/><feColorMatrix in="noise" type="matrix" values="0 0 0 0 0  0 0 0 0 0  0 0 0 0 0  0 0 0 0.035 0"/></filter>
<radialGradient id="vig204" cx="50%" cy="42%" r="75%"><stop offset="55%" stop-color="#000" stop-opacity="0"/><stop offset="100%" stop-color="#000" stop-opacity="0.30"/></radialGradient>
</defs>

<rect x="0" y="0" width="1600" height="744.0" fill="url(#sky204)"/>
<rect x="0" y="744.0" width="1600" height="456.0" fill="#365a52"/>
<path d="M635.0503785635162 782.9690971214573 Q624.0311860940046 687.0784490474261 613.0119936244929 629.5440602030073" stroke="#4a3d22" stroke-width="3.4461958899059577" fill="none" stroke-linecap="round" opacity="0.5828655603722448"/><path d="M1114.1208358417273 816.0253365433316 Q1101.294214928887 681.794574260528 1088.4675940160464 601.2561168908459" stroke="#4a3d22" stroke-width="2.2036118163330056" fill="none" stroke-linecap="round" opacity="0.7197293248301254"/><path d="M1574.4414988095903 1136.8869089150035 Q1563.9802977990792 1016.9543871600263 1553.519096788568 944.9948741070399" stroke="#4a3d22" stroke-width="2.594484006485424" fill="none" stroke-linecap="round" opacity="0.5676028634901923"/><path d="M379.35655361178976 821.7199991547798 Q375.67713084704974 753.7654980551063 371.99770808230966 712.9927973953022" stroke="#4a3d22" stroke-width="2.9702712958661155" fill="none" stroke-linecap="round" opacity="0.773027085501045"/><path d="M1334.621420712426 805.2448380080345 Q1341.5164358635636 715.5696605121431 1348.4114510147012 661.7645540146082" stroke="#4a3d22" stroke-width="2.105339551889407" fill="none" stroke-linecap="round" opacity="0.8277386907549514"/><path d="M906.8698472298008 948.3537861420655 Q918.9377218186047 870.4039810525413 931.0055964074085 823.6340979988267" stroke="#4a3d22" stroke-width="3.587054693642175" fill="none" stroke-linecap="round" opacity="0.6256462229632234"/><path d="M1525.019303843639 827.5654421755164 Q1537.814209076651 743.6108201096077 1550.6091143096628 693.2380468700626" stroke="#4a3d22" stroke-width="4.516092288176715" fill="none" stroke-linecap="round" opacity="0.7614334747243985"/><path d="M1363.7094360875292 811.3677642217365 Q1363.8758371524984 706.5616595866844 1364.0422382174677 643.6779968056533" stroke="#4a3d22" stroke-width="4.995207088467853" fill="none" stroke-linecap="round" opacity="0.8400478613178399"/><path d="M632.0472334577405 1112.5726143342965 Q629.2688964582354 1038.768282227469 626.4905594587302 994.4856829633724" stroke="#4a3d22" stroke-width="4.157198452048114" fill="none" stroke-linecap="round" opacity="0.803125544256434"/><path d="M1251.6643439704346 831.9123626320476 Q1264.9726332011587 787.8313885797482 1278.2809224318828 761.3828041483687" stroke="#4a3d22" stroke-width="3.611484160620628" fill="none" stroke-linecap="round" opacity="0.6814160905771041"/><path d="M1123.6565443770444 1174.060280013355 Q1127.1461508404998 1063.8683247036342 1130.6357573039554 997.7531515178017" stroke="#4a3d22" stroke-width="3.3659818526122773" fill="none" stroke-linecap="round" opacity="0.7256237770921132"/><path d="M1173.8051622220755 1001.69023232115 Q1169.8451889114783 867.5734624658369 1165.885215600881 787.103400552649" stroke="#4a3d22" stroke-width="4.690104441928707" fill="none" stroke-linecap="round" opacity="0.8489925175741424"/><path d="M1180.367554705855 928.1229534114162 Q1176.53851547341 837.6398830522471 1172.709476240965 783.3500408367456" stroke="#4a3d22" stroke-width="4.405400424066178" fill="none" stroke-linecap="round" opacity="0.757091090721657"/><path d="M286.1454432070071 915.4757238786249 Q276.01158944763483 801.9109011854221 265.87773568826265 733.7720075695004" stroke="#4a3d22" stroke-width="4.250472211496727" fill="none" stroke-linecap="round" opacity="0.6736739444864301"/><path d="M265.67314256775614 909.4385541242785 Q253.99669440342169 782.1478290073607 242.3202462390872 705.77339393721" stroke="#4a3d22" stroke-width="3.4293998207100627" fill="none" stroke-linecap="round" opacity="0.8448344972349822"/><path d="M463.4934091016083 1103.7974140170033 Q476.4306217122471 1025.6104270804208 489.36783432288587 978.6982349184714" stroke="#4a3d22" stroke-width="4.812862140626425" fill="none" stroke-linecap="round" opacity="0.7487233667484376"/><path d="M326.6210828266855 1169.2624595586922 Q335.73010893960026 1097.351213414244 344.8391350525151 1054.2044657275753" stroke="#4a3d22" stroke-width="3.9958180102956877" fill="none" stroke-linecap="round" opacity="0.6959778748736126"/><path d="M628.305840710777 1092.4993559617164 Q639.3920333981719 956.9894537843393 650.4782260855666 875.683512477913" stroke="#4a3d22" stroke-width="4.488692676216516" fill="none" stroke-linecap="round" opacity="0.5532095704341169"/><path d="M393.564744720711 1083.6863292332423 Q405.36914661004954 1000.2913398503689 417.17354849938806 950.2543462206448" stroke="#4a3d22" stroke-width="3.505106626333807" fill="none" stroke-linecap="round" opacity="0.8361451350107401"/><path d="M22.6302287944236 1168.070751624436 Q29.98360367134374 1101.4047065041364 37.33697854826388 1061.4050794319567" stroke="#4a3d22" stroke-width="3.7706044768128484" fill="none" stroke-linecap="round" opacity="0.7040480930040014"/><path d="M709.7805998624804 1093.430913575015 Q705.5377125075491 969.8107860357627 701.294825152618 895.6387095122114" stroke="#4a3d22" stroke-width="4.159161478085222" fill="none" stroke-linecap="round" opacity="0.6641681201481537"/><path d="M1070.041783868452 978.9572503567897 Q1060.0825860813345 873.4032647010083 1050.1233882942172 810.0708733075394" stroke="#4a3d22" stroke-width="3.2185687503213254" fill="none" stroke-linecap="round" opacity="0.7910624931072322"/><path d="M282.83992234542234 1070.9009868726407 Q282.28296445192393 987.7359191723608 281.7260065584255 937.836878552193" stroke="#4a3d22" stroke-width="2.779092543856223" fill="none" stroke-linecap="round" opacity="0.7415133711417671"/><path d="M261.1942844588302 902.2634228484847 Q259.8190844235984 855.4351463999832 258.4438843883666 827.3381805308824" stroke="#4a3d22" stroke-width="2.196886554746663" fill="none" stroke-linecap="round" opacity="0.661598534939889"/><path d="M809.413330106853 798.2820614935433 Q805.9562818723189 750.9764678133639 802.4992336377848 722.5931116052562" stroke="#4a3d22" stroke-width="4.76866020022276" fill="none" stroke-linecap="round" opacity="0.6545093845209693"/><path d="M977.7340100276862 833.9311422858892 Q965.0945392794906 719.7900635885799 952.4550685312952 651.3054163701943" stroke="#4a3d22" stroke-width="4.9205406133921565" fill="none" stroke-linecap="round" opacity="0.693294570503151"/><path d="M655.006225164536 1140.625304720958 Q650.8770938628529 1083.7098054914206 646.74796256117 1049.5605059536983" stroke="#4a3d22" stroke-width="4.4036905097713275" fill="none" stroke-linecap="round" opacity="0.7973186519196782"/><path d="M475.91180069513683 827.850697130591 Q474.77057414205467 720.518370739798 473.62934758897256 656.1189749053221" stroke="#4a3d22" stroke-width="4.692260641210299" fill="none" stroke-linecap="round" opacity="0.8438086763366364"/><path d="M1593.8595202782685 1042.5934591678824 Q1600.9077071618115 907.2237582653265 1607.9558940453546 826.001937723793" stroke="#4a3d22" stroke-width="2.7157372394947656" fill="none" stroke-linecap="round" opacity="0.8323918819104035"/><path d="M84.25734724787013 996.6210144129864 Q89.25993887000814 935.1809621446328 94.26253049214617 898.3169307836206" stroke="#4a3d22" stroke-width="3.630170448510926" fill="none" stroke-linecap="round" opacity="0.6831341783319456"/><path d="M1294.463977303414 920.2165786537789 Q1306.6346164083955 833.3800877170116 1318.805255513377 781.2781931549513" stroke="#4a3d22" stroke-width="3.124474852195652" fill="none" stroke-linecap="round" opacity="0.5261478752747825"/><path d="M805.4458231405063 950.7757856643484 Q806.9868558066812 860.5123372350429 808.5278884728561 806.3542681774595" stroke="#4a3d22" stroke-width="3.0610871870849357" fill="none" stroke-linecap="round" opacity="0.6156902904052135"/><path d="M1459.8565572598552 1027.9456299919939 Q1448.0148973342116 907.3826146428971 1436.173237408568 835.044805433439" stroke="#4a3d22" stroke-width="3.780969619537795" fill="none" stroke-linecap="round" opacity="0.5023743229514298"/><path d="M314.83930057608 1049.2443461277967 Q318.7595381444708 937.7616789741827 322.67977571286156 870.8720786820144" stroke="#4a3d22" stroke-width="3.195182954545051" fill="none" stroke-linecap="round" opacity="0.520839904501714"/><path d="M1417.477352227108 1023.7436369626771 Q1430.1320472672046 982.2846763760775 1442.786742307301 957.4093000241178" stroke="#4a3d22" stroke-width="2.2163087704218007" fill="none" stroke-linecap="round" opacity="0.4662805696796902"/><path d="M628.7246154233659 1161.5702606331638 Q621.029884727985 1092.4074507190976 613.3351540326039 1050.909764770658" stroke="#4a3d22" stroke-width="4.0903254621555565" fill="none" stroke-linecap="round" opacity="0.7157327468645281"/><path d="M1559.523190395773 965.2029263566362 Q1561.570633527732 885.541198758373 1563.6180766596908 837.7441621994149" stroke="#4a3d22" stroke-width="2.2240081485857335" fill="none" stroke-linecap="round" opacity="0.5559098658358629"/><path d="M1228.1279616067918 853.5721878161501 Q1223.6939179551637 729.4666869527739 1219.2598743035358 655.0033864347481" stroke="#4a3d22" stroke-width="2.601881076282967" fill="none" stroke-linecap="round" opacity="0.5676082984722353"/><path d="M396.981510301252 941.843170588512 Q411.3872221889585 833.3787161444528 425.79293407666506 768.3000434780174" stroke="#4a3d22" stroke-width="3.234488447559116" fill="none" stroke-linecap="round" opacity="0.6241210547175804"/><path d="M1216.533931519157 890.1226394121751 Q1223.1180263031165 823.0114577212642 1229.7021210870762 782.7447487067176" stroke="#4a3d22" stroke-width="2.254768112065762" fill="none" stroke-linecap="round" opacity="0.8058437086515118"/><path d="M236.7423966988664 868.6061707402606 Q227.8347191782747 777.0957549857746 218.927041657683 722.1895055330831" stroke="#4a3d22" stroke-width="2.3556465425488664" fill="none" stroke-linecap="round" opacity="0.8323776943128802"/><path d="M788.7162697860023 1019.8169923411876 Q795.6462457228125 884.0169029902629 802.5762216596228 802.536849379708" stroke="#4a3d22" stroke-width="4.155290613669157" fill="none" stroke-linecap="round" opacity="0.7515438400128494"/><path d="M1571.508504369932 1148.9737859547186 Q1577.2061944263369 1085.0758799313148 1582.903884482742 1046.7371363172724" stroke="#4a3d22" stroke-width="2.6932032331247884" fill="none" stroke-linecap="round" opacity="0.4533092749297496"/><path d="M564.8678592972872 1136.5005870128111 Q578.2764030651247 1073.6757302076865 591.6849468329622 1035.9808161246115" stroke="#4a3d22" stroke-width="4.670865064363652" fill="none" stroke-linecap="round" opacity="0.792287448831156"/><path d="M830.1417624742003 824.1050526840918 Q815.4828166803034 688.5689515782051 800.8238708864063 607.2472909146729" stroke="#4a3d22" stroke-width="4.348958429519355" fill="none" stroke-linecap="round" opacity="0.7890092478170895"/><path d="M842.7564688685475 1121.6504406627794 Q840.9817468224869 1021.520029017561 839.2070247764264 961.44178203043" stroke="#4a3d22" stroke-width="4.301583847478404" fill="none" stroke-linecap="round" opacity="0.6902925551603799"/><path d="M1470.400173725216 1003.3486717591543 Q1482.447206869351 921.0540806669954 1494.494240013486 871.6773260117001" stroke="#4a3d22" stroke-width="4.086609856894359" fill="none" stroke-linecap="round" opacity="0.5257018446421259"/><path d="M849.6548783590634 1023.511348359254 Q847.4107175289746 940.5050846723951 845.1665566988858 890.7013264602797" stroke="#4a3d22" stroke-width="4.191827820071144" fill="none" stroke-linecap="round" opacity="0.671304438811053"/><path d="M222.1337758787339 1125.8877395029415 Q210.8665719481256 1018.9593236519482 199.5993680175173 954.8022741413523" stroke="#4a3d22" stroke-width="4.345702528097086" fill="none" stroke-linecap="round" opacity="0.7537993079215184"/><path d="M283.62394535416513 1018.313859811416 Q290.0661940215661 978.5530260678644 296.5084426889671 954.6965258217334" stroke="#4a3d22" stroke-width="3.437156487856768" fill="none" stroke-linecap="round" opacity="0.6601646911458445"/><path d="M1175.9529485083874 1171.1895522357026 Q1167.0670825198995 1113.0804056707884 1158.1812165314118 1078.21491773184" stroke="#4a3d22" stroke-width="4.401085004943766" fill="none" stroke-linecap="round" opacity="0.8030526085452754"/><path d="M602.2291708193206 974.3737720724996 Q594.4053710718531 901.0518165787757 586.5815713243857 857.0586432825414" stroke="#4a3d22" stroke-width="4.1844506256475595" fill="none" stroke-linecap="round" opacity="0.4886961425781123"/><path d="M260.74278266340355 900.9436784498881 Q267.79827398011207 782.5111776742757 274.85376529682065 711.4516772089082" stroke="#4a3d22" stroke-width="3.4450555053216254" fill="none" stroke-linecap="round" opacity="0.47931970616908665"/><path d="M1296.719745545528 903.0792092782494 Q1282.4607507435194 808.8206341926765 1268.201755941511 752.2654891413328" stroke="#4a3d22" stroke-width="4.058754975430782" fill="none" stroke-linecap="round" opacity="0.7283173349707923"/><path d="M541.1628665818798 916.7850060765031 Q549.1388336272677 867.0342208411283 557.1148006726555 837.1837496999034" stroke="#4a3d22" stroke-width="3.841073459839047" fill="none" stroke-linecap="round" opacity="0.7954860608178385"/><path d="M964.3340531581385 851.038820972588 Q973.952507343539 714.9579567862114 983.5709615289395 633.3094382743855" stroke="#4a3d22" stroke-width="4.77115327768229" fill="none" stroke-linecap="round" opacity="0.6595716582077744"/><path d="M781.1730060708763 868.8338754471775 Q789.7799621131419 804.8206195624019 798.3869181554073 766.4126660315367" stroke="#4a3d22" stroke-width="4.42889414988706" fill="none" stroke-linecap="round" opacity="0.4502489272619345"/><path d="M706.6693708214617 1078.9494560711655 Q707.8607461789937 944.8291932949154 709.0521215365258 864.3570356291652" stroke="#4a3d22" stroke-width="4.372775369702174" fill="none" stroke-linecap="round" opacity="0.5639604063188555"/><path d="M1039.060089884776 830.0940140311825 Q1032.6400784183813 702.4586954403571 1026.2200669519866 625.877504285862" stroke="#4a3d22" stroke-width="4.104970938793733" fill="none" stroke-linecap="round" opacity="0.5397885409274491"/><path d="M1229.3283173492407 1012.6582319365035 Q1222.6475660718995 920.8580070696227 1215.9668147945583 865.7778721494941" stroke="#4a3d22" stroke-width="4.067744820551336" fill="none" stroke-linecap="round" opacity="0.6275107245275064"/><path d="M1449.8838648070225 1115.3465181675529 Q1435.6808147263132 1008.1935035270725 1421.4777646456037 943.9016947427842" stroke="#4a3d22" stroke-width="3.8688860770708327" fill="none" stroke-linecap="round" opacity="0.6168210787953985"/><path d="M742.6947405551437 953.8768408436549 Q747.4014519750215 862.6738766065478 752.1081633948994 807.9520980642835" stroke="#4a3d22" stroke-width="4.59406980727632" fill="none" stroke-linecap="round" opacity="0.7591668241035957"/><path d="M247.0856118998597 894.0203304283232 Q261.8133964209472 820.3357788067649 276.5411809420346 776.12504783383" stroke="#4a3d22" stroke-width="3.175070443043248" fill="none" stroke-linecap="round" opacity="0.7829047195206587"/><path d="M294.3835054753958 799.8636056350186 Q295.9810833905166 705.776059119562 297.5786613056374 649.3235312102879" stroke="#4a3d22" stroke-width="2.745018612863863" fill="none" stroke-linecap="round" opacity="0.540849481798987"/><path d="M656.6614447355452 1015.4153083300955 Q661.5531609233846 883.5652624954878 666.444877111224 804.4552349947232" stroke="#4a3d22" stroke-width="2.513091401737589" fill="none" stroke-linecap="round" opacity="0.8253225268307531"/><path d="M429.27570612361967 1029.6704202373016 Q432.70433019179364 934.0122621613433 436.1329542599677 876.6173673157682" stroke="#4a3d22" stroke-width="4.175135610958389" fill="none" stroke-linecap="round" opacity="0.4975087024069529"/><path d="M1062.3356266183955 956.1832327784214 Q1052.1206984071287 869.6630321226592 1041.9057701958618 817.7509117292018" stroke="#4a3d22" stroke-width="3.094246008214086" fill="none" stroke-linecap="round" opacity="0.7668687784545445"/><path d="M1139.8130365228217 1050.9476726133312 Q1143.1343817518098 960.2767451119375 1146.455726980798 905.8741886111013" stroke="#4a3d22" stroke-width="2.113348136137186" fill="none" stroke-linecap="round" opacity="0.5882601452189984"/><path d="M878.1454300919456 1086.473270601683 Q867.3881581719462 1027.7653328014032 856.6308862519467 992.5405701212354" stroke="#4a3d22" stroke-width="2.146045694307333" fill="none" stroke-linecap="round" opacity="0.7745678745468025"/><path d="M249.1516470401894 961.3955686834698 Q240.30528176176588 843.8617190494192 231.45891648334236 773.3414092689889" stroke="#4a3d22" stroke-width="2.847143254328016" fill="none" stroke-linecap="round" opacity="0.5861463038168231"/><path d="M949.9795273978547 932.1289466124786 Q943.4996419127248 800.5468916709394 937.0197564275949 721.5976587060159" stroke="#4a3d22" stroke-width="4.403596342877512" fill="none" stroke-linecap="round" opacity="0.49803692568044233"/><path d="M577.6794546296326 858.0196514342127 Q563.8570333751416 761.3918879494948 550.0346121206504 703.4152298586641" stroke="#4a3d22" stroke-width="3.570305699997794" fill="none" stroke-linecap="round" opacity="0.4815310579618376"/><path d="M1360.3170324886626 1199.5067703732032 Q1372.4461587296266 1115.1057567624443 1384.5752849705905 1064.4651485959891" stroke="#4a3d22" stroke-width="4.357375758098393" fill="none" stroke-linecap="round" opacity="0.8170494046769836"/><path d="M570.1585532625738 896.8229328693529 Q555.6929138519471 809.2384645101793 541.2272744413203 756.687783494675" stroke="#4a3d22" stroke-width="2.0110432119392" fill="none" stroke-linecap="round" opacity="0.5522226222397688"/><path d="M877.317474207688 892.8624327914013 Q872.7901415153185 801.8233720247811 868.2628088229491 747.199935564809" stroke="#4a3d22" stroke-width="2.4047184151020895" fill="none" stroke-linecap="round" opacity="0.7808106069087246"/><path d="M824.1718115989295 1159.3706282126657 Q823.9716281200617 1090.0151132748313 823.7714446411941 1048.4018043121305" stroke="#4a3d22" stroke-width="3.2102438812195735" fill="none" stroke-linecap="round" opacity="0.48369808953559906"/><path d="M392.0010516683462 912.6778691621626 Q382.78433869294906 830.4179767084322 373.567625717552 781.0620412361941" stroke="#4a3d22" stroke-width="2.461061101718375" fill="none" stroke-linecap="round" opacity="0.6433502285560122"/><path d="M488.62824282719083 925.2880206085667 Q497.5602929644224 857.8530045776092 506.49234310165394 817.3919949590347" stroke="#4a3d22" stroke-width="3.1803130727684588" fill="none" stroke-linecap="round" opacity="0.6217900027495009"/><path d="M1506.8169452200725 927.398571351273 Q1504.664868528657 867.7500216287868 1502.5127918372414 831.9608917952951" stroke="#4a3d22" stroke-width="2.999319200693918" fill="none" stroke-linecap="round" opacity="0.6116434845054839"/><path d="M113.2609332969393 975.7117750866068 Q106.39097016646103 846.252019977455 99.52100703598276 768.5761669119639" stroke="#4a3d22" stroke-width="4.8576103108759145" fill="none" stroke-linecap="round" opacity="0.6682763998767643"/><path d="M337.17816084956524 976.216761107035 Q327.68613019334623 851.9310279735485 318.1940995371272 777.3595880934565" stroke="#4a3d22" stroke-width="4.158028770291494" fill="none" stroke-linecap="round" opacity="0.6055201571079771"/><path d="M15.946520550775034 1117.2203435578615 Q4.463021413798343 993.4870163021926 -7.020477723178349 919.2470199487914" stroke="#4a3d22" stroke-width="2.2083722920942552" fill="none" stroke-linecap="round" opacity="0.7748905289371963"/><path d="M533.6607364810201 1108.7058521440417 Q541.6391864895165 1006.3045980184012 549.617636498013 944.8638455430169" stroke="#4a3d22" stroke-width="4.0247748238823435" fill="none" stroke-linecap="round" opacity="0.6176206313723098"/><path d="M1072.1816416859501 975.8514100890098 Q1082.567552784645 932.8773166001015 1092.9534638833397 907.0928605067564" stroke="#4a3d22" stroke-width="3.857618806674391" fill="none" stroke-linecap="round" opacity="0.721900641723209"/><path d="M92.95141394129072 755.873090946342 Q97.57138788311309 696.1705160730871 102.19136182493546 660.3489711491342" stroke="#4a3d22" stroke-width="4.754759942557839" fill="none" stroke-linecap="round" opacity="0.8274114242610736"/><path d="M1398.7644314689765 813.724125616755 Q1406.6289762315996 751.9496815729206 1414.4935209942225 714.8850151466199" stroke="#4a3d22" stroke-width="4.504219226263166" fill="none" stroke-linecap="round" opacity="0.6395378804415973"/><path d="M543.1668443223186 947.7887359686981 Q536.6994672170015 851.0237396191995 530.2320901116843 792.9647418095003" stroke="#4a3d22" stroke-width="3.342310072551923" fill="none" stroke-linecap="round" opacity="0.8414946430990042"/><path d="M1110.4043950120945 1116.6499358270153 Q1114.340677418246 984.0687323533975 1118.2769598243976 904.5200102692268" stroke="#4a3d22" stroke-width="4.706811267905765" fill="none" stroke-linecap="round" opacity="0.5187323157197266"/><path d="M1076.9684797055274 1177.3386869109127 Q1088.551695631816 1056.2503162343198 1100.134911558105 983.5972938283642" stroke="#4a3d22" stroke-width="2.6037204142348194" fill="none" stroke-linecap="round" opacity="0.6310474985209544"/><path d="M199.5141926283299 1127.6274455866285 Q211.2096562844713 1001.7186599816624 222.90511994061265 926.1733886186828" stroke="#4a3d22" stroke-width="3.276277301074485" fill="none" stroke-linecap="round" opacity="0.6779943795320047"/><path d="M1476.893053781309 1138.492735618365 Q1466.986041537885 1020.2868770884035 1457.0790292944612 949.3633619704265" stroke="#4a3d22" stroke-width="3.8456503330325127" fill="none" stroke-linecap="round" opacity="0.8067415871817945"/><path d="M370.74598223544706 958.7292435091258 Q383.70984106557137 848.0489717746938 396.6736998956957 781.6408087340345" stroke="#4a3d22" stroke-width="4.518207491528341" fill="none" stroke-linecap="round" opacity="0.7800719512055457"/><path d="M944.0665294086409 912.6932508878015 Q943.7459430855286 844.0606347712189 943.4253567624162 802.8810651012693" stroke="#4a3d22" stroke-width="4.265723570311669" fill="none" stroke-linecap="round" opacity="0.5004501748092869"/><path d="M1050.961392738862 975.0823438259683 Q1065.5784281184788 937.3399504914921 1080.1954634980955 914.6945144908063" stroke="#4a3d22" stroke-width="3.2091018567850016" fill="none" stroke-linecap="round" opacity="0.7325816884042433"/><path d="M394.70943430268994 989.0138777782806 Q380.0338143694889 898.5837835705231 365.3581944362879 844.3257270458685" stroke="#4a3d22" stroke-width="3.161795994250774" fill="none" stroke-linecap="round" opacity="0.5162384832620778"/><path d="M186.65219810992005 882.753660232224 Q172.74617985257976 839.6495497391423 158.84016159523946 813.7870834432933" stroke="#4a3d22" stroke-width="4.403390490605576" fill="none" stroke-linecap="round" opacity="0.7069533590212989"/><path d="M1100.4375218461626 1058.9948128888072 Q1098.9147518779084 960.644602487781 1097.3919819096545 901.6344762471651" stroke="#4a3d22" stroke-width="2.6933609383952106" fill="none" stroke-linecap="round" opacity="0.7051864138461112"/><path d="M163.99973428517427 972.4972537374257 Q153.92458421310178 864.400360550843 143.84943414102926 799.5422246388932" stroke="#4a3d22" stroke-width="2.555372645132507" fill="none" stroke-linecap="round" opacity="0.5714807079550429"/><path d="M671.0551056879634 932.123823415732 Q674.5480456841269 885.1222652833347 678.0409856802903 856.9213304038963" stroke="#4a3d22" stroke-width="2.1677789362331357" fill="none" stroke-linecap="round" opacity="0.6607549939894048"/><path d="M182.5117423341286 828.2389317139864 Q189.04548688703207 747.7592709976867 195.57923143993554 699.4714745679069" stroke="#4a3d22" stroke-width="3.6862247353483593" fill="none" stroke-linecap="round" opacity="0.6805835050125209"/><path d="M581.1059957558049 763.0220965518282 Q567.8794989814054 691.1325209978017 554.6530022070058 647.9987756653859" stroke="#4a3d22" stroke-width="3.342622960282175" fill="none" stroke-linecap="round" opacity="0.7911771130385817"/><path d="M1003.4800421254608 747.1500144554014 Q1010.726430440119 662.7209615681703 1017.9728187547771 612.0635298358316" stroke="#4a3d22" stroke-width="3.544154660263881" fill="none" stroke-linecap="round" opacity="0.7868126357099468"/><path d="M1194.8234493995333 973.7148732753313 Q1198.158354491061 850.728988667923 1201.4932595825887 776.9374579034779" stroke="#4a3d22" stroke-width="2.8054470370043463" fill="none" stroke-linecap="round" opacity="0.7573795487563943"/><path d="M166.89938765704628 818.1062537971785 Q173.26269668384234 738.3840993809314 179.6260057106384 690.5508067311831" stroke="#4a3d22" stroke-width="2.2489854742427777" fill="none" stroke-linecap="round" opacity="0.8093226722649309"/><path d="M471.2800842927731 814.4349533412931 Q465.1798550648218 723.6889460541884 459.07962583687055 669.2413416819254" stroke="#4a3d22" stroke-width="4.5386382052648875" fill="none" stroke-linecap="round" opacity="0.6123266282870051"/><path d="M1328.1157163229907 896.6778098983563 Q1318.9103305236888 801.4458963075383 1309.7049447243871 744.3067481530475" stroke="#4a3d22" stroke-width="3.7397366327785853" fill="none" stroke-linecap="round" opacity="0.5084129920101879"/><path d="M732.938226107347 964.8362577032722 Q720.691332226418 926.5376310636227 708.4444383454891 903.558455079833" stroke="#4a3d22" stroke-width="3.1441702610964457" fill="none" stroke-linecap="round" opacity="0.7653376563814451"/><path d="M1119.7968020633632 1170.2738952596744 Q1108.2424237868845 1110.242669418751 1096.6880455104056 1074.223933914197" stroke="#4a3d22" stroke-width="3.0380990885570522" fill="none" stroke-linecap="round" opacity="0.7494838724596344"/><path d="M1280.7425577380857 985.3343892774998 Q1277.5560191145955 930.2960194897886 1274.3694804911054 897.2729976171618" stroke="#4a3d22" stroke-width="2.0495498804549745" fill="none" stroke-linecap="round" opacity="0.6449986785682342"/><path d="M1361.2755362772725 890.8234383789938 Q1370.1379052225936 808.4838130601964 1379.0002741679148 759.0800378689179" stroke="#4a3d22" stroke-width="3.790522799246649" fill="none" stroke-linecap="round" opacity="0.643152403457882"/><path d="M696.1990801234978 1179.9423451128125 Q699.8977066340398 1067.3571009834807 703.5963331445816 999.8059545058816" stroke="#4a3d22" stroke-width="2.7312031244931725" fill="none" stroke-linecap="round" opacity="0.5163162575098168"/><path d="M113.83233655527114 829.2741965744365 Q126.92430176732745 731.8861133196916 140.01626697938374 673.4532633668446" stroke="#4a3d22" stroke-width="2.0081787017492427" fill="none" stroke-linecap="round" opacity="0.8302461704955735"/><path d="M397.13144754690893 772.0908608758102 Q382.30406481921096 688.7136572833072 367.476682091513 638.6873351278052" stroke="#4a3d22" stroke-width="2.1253579387713715" fill="none" stroke-linecap="round" opacity="0.8019274761459823"/><path d="M240.56413045073288 968.9975841229257 Q229.7273632350119 917.7223354804936 218.89059601929088 886.9571862950344" stroke="#4a3d22" stroke-width="3.850335314782397" fill="none" stroke-linecap="round" opacity="0.7079977380088911"/><path d="M1590.792211226978 950.2518610005764 Q1594.824061636165 868.5180348055967 1598.855912045352 819.4777390886089" stroke="#4a3d22" stroke-width="2.5481406751684195" fill="none" stroke-linecap="round" opacity="0.5523925755928591"/><path d="M1174.8839757446513 1158.3038752100167 Q1170.7203164000257 1070.45772030882 1166.5566570554004 1017.750027368102" stroke="#4a3d22" stroke-width="4.18298888959305" fill="none" stroke-linecap="round" opacity="0.6208845495424697"/><path d="M1130.5261026846965 1153.2795574270563 Q1131.7506146097783 1044.5083902809456 1132.9751265348602 979.2456899932791" stroke="#4a3d22" stroke-width="3.1095782801023955" fill="none" stroke-linecap="round" opacity="0.5427160065161962"/><path d="M797.5854839606008 1101.4473308182824 Q784.3037280295654 1049.1538787262539 771.0219720985299 1017.7778074710367" stroke="#4a3d22" stroke-width="2.241866355760342" fill="none" stroke-linecap="round" opacity="0.608205901873097"/><path d="M396.9503335444445 997.9794331021751 Q384.9385044963402 935.8120123206239 372.926675448236 898.5115598516932" stroke="#4a3d22" stroke-width="4.3039684999779535" fill="none" stroke-linecap="round" opacity="0.5470434327365477"/><path d="M232.2367692668502 1067.3084808235249 Q238.7829020082469 976.9539632415954 245.3290347496436 922.7412526924377" stroke="#4a3d22" stroke-width="4.3495618501253315" fill="none" stroke-linecap="round" opacity="0.5998666893337286"/><path d="M775.8421976393373 784.8241373270812 Q776.8227944812852 725.7566787660892 777.8033913232331 690.3162036294939" stroke="#4a3d22" stroke-width="2.4793897895564765" fill="none" stroke-linecap="round" opacity="0.828917612437639"/><path d="M30.718350293438412 1097.4007072635786 Q25.60008902067299 1045.1195300786273 20.481827747907563 1013.7508237676566" stroke="#4a3d22" stroke-width="2.2210509788705473" fill="none" stroke-linecap="round" opacity="0.5847154548322304"/><path d="M322.4400410942737 890.7184476194964 Q328.41866785683015 812.8119672712886 334.39729461938657 766.068079062364" stroke="#4a3d22" stroke-width="2.840334432968274" fill="none" stroke-linecap="round" opacity="0.5028969147062604"/><path d="M111.52253788843768 771.6437797066002 Q123.74405321765995 648.11214684 135.96556854688222 573.9931671200399" stroke="#4a3d22" stroke-width="4.608261149192824" fill="none" stroke-linecap="round" opacity="0.6457133591892101"/><path d="M912.569072959333 1050.9235373468164 Q914.228532742502 990.3738057541558 915.887992525671 954.0439667985595" stroke="#4a3d22" stroke-width="4.3182811748262075" fill="none" stroke-linecap="round" opacity="0.8246375055197572"/><path d="M130.16731199280525 815.741775216972 Q141.81299147290224 688.4418621270062 153.45867095299926 612.0619142730267" stroke="#4a3d22" stroke-width="4.490639489853345" fill="none" stroke-linecap="round" opacity="0.6596736107540002"/><path d="M896.1860660728046 1170.7310541258007 Q895.9652419866476 1057.474407394813 895.7444179004906 989.5204193562203" stroke="#4a3d22" stroke-width="3.569456334734949" fill="none" stroke-linecap="round" opacity="0.5185494227983066"/><path d="M1312.2866503805467 1110.5744436847745 Q1327.1894254161896 994.6925932267301 1342.0922004518325 925.1634829519033" stroke="#4a3d22" stroke-width="3.5325831435576185" fill="none" stroke-linecap="round" opacity="0.6685968637437627"/><path d="M362.35993665765596 1050.5019252109307 Q373.53797996466074 980.2420868159678 384.71602327166556 938.08618377899" stroke="#4a3d22" stroke-width="3.6866023055574786" fill="none" stroke-linecap="round" opacity="0.7225898600395365"/><path d="M1116.7962247377488 1007.2334846478063 Q1121.2731753232276 912.2477821569597 1125.7501259087064 855.2563606624517" stroke="#4a3d22" stroke-width="3.6542076667584533" fill="none" stroke-linecap="round" opacity="0.6246374436259403"/><path d="M321.09524180463256 1058.9552493752046 Q328.20349064095507 992.8280577628166 335.31173947727757 953.1517427953836" stroke="#4a3d22" stroke-width="4.360976090453391" fill="none" stroke-linecap="round" opacity="0.6394717180236469"/><path d="M348.54694679226037 960.1599088181855 Q335.2351631334342 848.8660318714076 321.92337947460805 782.0897057033409" stroke="#4a3d22" stroke-width="4.939314799109503" fill="none" stroke-linecap="round" opacity="0.803968802006776"/><path d="M358.2561878219884 905.0870792615265 Q351.6871554337081 771.6408171815488 345.1181230454278 691.5730599335621" stroke="#4a3d22" stroke-width="4.903878660833709" fill="none" stroke-linecap="round" opacity="0.5090362890325619"/><path d="M1250.1675018805338 1040.5260842513917 Q1241.2079685282972 964.4150765883123 1232.2484351760609 918.7484719904646" stroke="#4a3d22" stroke-width="4.966698152352496" fill="none" stroke-linecap="round" opacity="0.8174618373087883"/><path d="M1378.7657687415865 872.6201438792065 Q1372.9083591273668 812.4479708261408 1367.0509495131469 776.3446669943014" stroke="#4a3d22" stroke-width="4.399150067759081" fill="none" stroke-linecap="round" opacity="0.6939027694040596"/><path d="M975.8373047898273 777.6089429023784 Q963.1663517425292 714.4833834435366 950.495398695231 676.6080477682315" stroke="#4a3d22" stroke-width="2.4971699650195154" fill="none" stroke-linecap="round" opacity="0.7387172816877485"/><path d="M1272.5824079142387 819.2503122736822 Q1257.7442459233087 748.3171304350143 1242.9060839323786 705.7572213318135" stroke="#4a3d22" stroke-width="2.392081230595569" fill="none" stroke-linecap="round" opacity="0.7695503925468425"/><path d="M203.91213507141293 916.8083891296692 Q200.2700874632107 814.0411278080048 196.6280398550085 752.3807710150061" stroke="#4a3d22" stroke-width="4.442172132039242" fill="none" stroke-linecap="round" opacity="0.8337252302327007"/><path d="M1419.202749755242 1100.5778530635298 Q1432.2713137677886 1008.3049006844444 1445.3398777803352 952.9411292569931" stroke="#4a3d22" stroke-width="3.747695748719261" fill="none" stroke-linecap="round" opacity="0.8005108301623232"/><path d="M676.80858718114 789.9509428033906 Q687.1019458720447 738.786042049333 697.3953045629494 708.0871015968984" stroke="#4a3d22" stroke-width="3.2222395567038236" fill="none" stroke-linecap="round" opacity="0.7307184792723331"/>

<rect x="0" y="0" width="1600" height="1200" filter="url(#grain204)"/>
<rect x="0" y="0" width="1600" height="1200" fill="url(#vig204)"/>
</svg>