<svg xmlns="http://www.w3.org/2000/svg" viewBox="0 0 1600 1200" width="1600" height="1200" preserveAspectRatio="xMidYMid slice">
<defs>

<linearGradient id="sky203" x1="0" y1="0" x2="0" y2="1">
<stop offset="0%" stop-color="#f7d9c4"/><stop offset="100%" stop-color="#e6935f"/>
</linearGradient>

<filter id="grain203"><feTurbulence type="fractalNoise" baseFrequency="0.85" numOctaves="2" seed="203" stitchTiles="stitch" result="noise"/><feColorMatrix in="noise" type="matrix" values="0 0 0 0 0  0 0 0 0 0  0 0 0 0 0  0 0 0 0.035 0"/></filter>
<radialGradient id="vig203" cx="50%" cy="42%" r="75%"><stop offset="55%" stop-color="#000" stop-opacity="0"/><stop offset="100%" stop-color="#000" stop-opacity="0.30"/></radialGradient>
</defs>

<rect x="0" y="0" width="1600" height="744.0" fill="url(#sky203)"/>
<rect x="0" y="744.0" width="1600" height="456.0" fill="#2f5450"/>
<path d="M145.21309187827535 1128.0012378126316 Q136.59200473593583 1030.4560134416336 127.97091759359633 971.9288788190347" stroke="#5c4a2c" stroke-width="4.339066415863609" fill="none" stroke-linecap="round" opacity="0.6878431170478196"/><path d="M1324.8686106382686 1022.9668746286447 Q1333.1200020450142 913.1405221648414 1341.3713934517598 847.2447106865593" stroke="#5c4a2c" stroke-width="3.0323452720662947" fill="none" stroke-linecap="round" opacity="0.4883673511375166"/><path d="M1436.4829079121555 797.5499122629656 Q1451.222048086816 704.3675468603635 1465.9611882614763 648.4581276188023" stroke="#5c4a2c" stroke-width="3.0515103020976673" fill="none" stroke-linecap="round" opacity="0.5545756446919891"/><path d="M611.9149260978061 836.2058632428029 Q605.8578910557576 723.7203150555883 599.8008560137091 656.2289861432596" stroke="#5c4a2c" stroke-width="2.219633410595967" fill="none" stroke-linecap="round" opacity="0.6881817384161241"/><path d="M414.71138727282977 825.6244715906021 Q424.87658816745073 786.4452717225638 435.04178906207176 762.9377518017408" stroke="#5c4a2c" stroke-width="3.133162360008207" fill="none" stroke-linecap="round" opacity="0.6899864051920134"/><path d="M769.0993966245095 1140.3884482477572 Q773.1176535093057 1096.156775941025 777.1359103941018 1069.6177725569858" stroke="#5c4a2c" stroke-width="4.48916928059834" fill="none" stroke-linecap="round" opacity="0.5627983739177537"/><path d="M693.9142677282952 897.4763885760041 Q707.2757142463139 827.5877796345151 720.6371607643327 785.6546142696217" stroke="#5c4a2c" stroke-width="2.68580238165308" fill="none" stroke-linecap="round" opacity="0.7451269384379087"/><path d="M70.76485917843733 1100.3868537115336 Q79.44556760770115 1054.8432294918016 88.12627603696498 1027.5170549599623" stroke="#5c4a2c" stroke-width="2.1975212560143413" fill="none" stroke-linecap="round" opacity="0.5361379303306351"/><path d="M422.0739339085052 872.3771279986621 Q422.2111112581625 757.1880080206757 422.3482886078198 688.074536033884" stroke="#5c4a2c" stroke-width="2.1373484784711123" fill="none" stroke-linecap="round" opacity="0.5230696198202816"/><path d="M670.3606087586069 1068.0369032811175 Q669.7617125045668 966.4701117225453 669.1628162505268 905.5300367874021" stroke="#5c4a2c" stroke-width="4.422672546822742" fill="none" stroke-linecap="round" opacity="0.8285349846826062"/><path d="M1519.165400660321 1196.123088889089 Q1533.7500112800733 1066.6921069064942 1548.3346218998258 989.0335177169372" stroke="#5c4a2c" stroke-width="4.14926593102517" fill="none" stroke-linecap="round" opacity="0.7269432967962515"/><path d="M933.4326035643096 922.3476178933663 Q929.8902104054025 801.137788662642 926.3478172464954 728.4118911242074" stroke="#5c4a2c" stroke-width="4.717149685807108" fill="none" stroke-linecap="round" opacity="0.6265681066665232"/><path d="M35.43024218489865 1130.5220213699904 Q20.56802204083843 1044.5475718991984 5.705801896778201 992.962902216723" stroke="#5c4a2c" stroke-width="4.453925821252673" fill="none" stroke-linecap="round" opacity="0.7677359230579902"/><path d="M1402.1722412971303 955.6738061295632 Q1393.6841452742158 901.4048983220357 1385.1960492513012 868.8435536375192" stroke="#5c4a2c" stroke-width="3.6121314042730654" fill="none" stroke-linecap="round" opacity="0.7186959327187328"/><path d="M891.5491916034262 853.7101609380221 Q905.7523661062942 801.423770441729 919.9555406091622 770.0519361439531" stroke="#5c4a2c" stroke-width="4.993602289002652" fill="none" stroke-linecap="round" opacity="0.8261285224228712"/><path d="M831.7198644181765 779.6325908119957 Q833.3070062111168 720.0671433308656 834.8941480040572 684.3278748421876" stroke="#5c4a2c" stroke-width="4.612614047642247" fill="none" stroke-linecap="round" opacity="0.7283209067948045"/><path d="M173.18038861364204 1161.6472501135754 Q171.07528429424286 1059.9705757251163 168.9701799748437 998.9645710920408" stroke="#5c4a2c" stroke-width="4.309895361743669" fill="none" stroke-linecap="round" opacity="0.6137272138743217"/><path d="M863.2098649492596 755.6527600322765 Q876.1110278411467 710.5422119461308 889.0121907330337 683.4758830944434" stroke="#5c4a2c" stroke-width="3.265659844242892" fill="none" stroke-linecap="round" opacity="0.7663805541696844"/><path d="M594.2375102455072 922.9473019053016 Q606.1221289032089 874.340325725485 618.0067475609106 845.176140017595" stroke="#5c4a2c" stroke-width="2.7567647596600824" fill="none" stroke-linecap="round" opacity="0.7565253890001093"/><path d="M284.5518126849026 882.4190609579863 Q290.42232325294185 836.0722166127932 296.2928338209811 808.2641100056775" stroke="#5c4a2c" stroke-width="4.75340497930831" fill="none" stroke-linecap="round" opacity="0.7008633484572155"/><path d="M1030.92950216077 857.3928968322991 Q1019.3252596295093 724.6507536803269 1007.7210170982487 645.0054677891437" stroke="#5c4a2c" stroke-width="2.751088722695655" fill="none" stroke-linecap="round" opacity="0.676443348859515"/><path d="M1023.9877302411644 874.9603118124959 Q1012.4416881507628 778.363527298747 1000.8956460603614 720.4054565904978" stroke="#5c4a2c" stroke-width="2.1463326156930527" fill="none" stroke-linecap="round" opacity="0.6202331365280074"/><path d="M923.1042147558119 1146.5961261151276 Q936.1734645251723 1062.4022963948125 949.2427142945329 1011.8859985626236" stroke="#5c4a2c" stroke-width="4.299946515648937" fill="none" stroke-linecap="round" opacity="0.8386119214329757"/><path d="M1134.5294174498426 936.7585104658382 Q1140.2207372482108 835.6306217859785 1145.912057046579 774.9538885780627" stroke="#5c4a2c" stroke-width="2.765703108115316" fill="none" stroke-linecap="round" opacity="0.5190795350219959"/><path d="M517.6648389990577 990.9067145236555 Q513.3853701045728 948.3452163529671 509.1059012100877 922.808317450554" stroke="#5c4a2c" stroke-width="2.434244863693598" fill="none" stroke-linecap="round" opacity="0.8242098805399192"/><path d="M723.4898989725612 1003.2041315211932 Q722.0172806960752 951.7882503165042 720.5446624195893 920.9387215936908" stroke="#5c4a2c" stroke-width="4.887372543165375" fill="none" stroke-linecap="round" opacity="0.7837188696890232"/><path d="M1459.1373874297033 818.3811101133816 Q1468.4213121294872 694.8660887208646 1477.705236829271 620.7570758853543" stroke="#5c4a2c" stroke-width="3.1368078926536223" fill="none" stroke-linecap="round" opacity="0.5878340302368533"/><path d="M1458.2600176614824 881.1990131737871 Q1462.557935497732 817.2571973224109 1466.8558533339815 778.8921078115851" stroke="#5c4a2c" stroke-width="3.5120414657155514" fill="none" stroke-linecap="round" opacity="0.6246847912625804"/><path d="M678.5366533425698 1069.790712508246 Q677.0083945597913 960.0666818288153 675.4801357770128 894.2322634211569" stroke="#5c4a2c" stroke-width="4.818870405050502" fill="none" stroke-linecap="round" opacity="0.5576549986655066"/><path d="M446.50952239758067 921.1505669247439 Q446.6623775532928 883.4162865486487 446.81523270900493 860.7757183229916" stroke="#5c4a2c" stroke-width="3.431034432363706" fill="none" stroke-linecap="round" opacity="0.5568718590340616"/><path d="M721.410179594561 961.6250641274203 Q722.7527801652864 866.0951881494179 724.0953807360116 808.7772625626166" stroke="#5c4a2c" stroke-width="3.0253200148179196" fill="none" stroke-linecap="round" opacity="0.5961902636434623"/><path d="M1385.719493608877 775.2451796070725 Q1374.7637795762303 648.6186367170528 1363.8080655435833 572.642710983041" stroke="#5c4a2c" stroke-width="2.5151281924945694" fill="none" stroke-linecap="round" opacity="0.6233332673119101"/><path d="M1580.9496009370898 845.0022829364325 Q1588.7287983737428 802.4279238010727 1596.5079958103956 776.8833083198567" stroke="#5c4a2c" stroke-width="3.5268422981184737" fill="none" stroke-linecap="round" opacity="0.5029335983999693"/><path d="M1423.733037656249 1010.4991130778819 Q1412.0894413785804 905.3539155614358 1400.4458451009116 842.2667970515681" stroke="#5c4a2c" stroke-width="3.838497329208848" fill="none" stroke-linecap="round" opacity="0.4683722778570783"/><path d="M409.9677995530035 1003.796404337369 Q422.92140103262346 867.020941213599 435.87500251224344 784.955663339337" stroke="#5c4a2c" stroke-width="2.578447792586104" fill="none" stroke-linecap="round" opacity="0.8128852068691986"/><path d="M1435.641642293632 787.8709935361142 Q1426.767088384278 744.7808505277235 1417.8925344749239 718.9267647226892" stroke="#5c4a2c" stroke-width="4.993277645777645" fill="none" stroke-linecap="round" opacity="0.5531206327178599"/><path d="M862.9956078328371 1045.778758308476 Q858.1396960878999 966.366164630988 853.2837843429626 918.7186084244952" stroke="#5c4a2c" stroke-width="3.693447411760723" fill="none" stroke-linecap="round" opacity="0.7723256476219791"/><path d="M351.8563438451144 759.9206179405425 Q365.49122221875155 677.4236170891861 379.12610059238864 627.9254165783724" stroke="#5c4a2c" stroke-width="4.565639803793052" fill="none" stroke-linecap="round" opacity="0.4801893186743043"/><path d="M1164.178673360837 1156.9102710825957 Q1150.0393947351954 1036.2193839937593 1135.900116109554 963.8048517404575" stroke="#5c4a2c" stroke-width="2.0383252851630598" fill="none" stroke-linecap="round" opacity="0.631593378572011"/><path d="M1515.8904192133798 1158.0966167299289 Q1529.4126842002538 1090.707598503064 1542.9349491871278 1050.274187566945" stroke="#5c4a2c" stroke-width="4.429004591465117" fill="none" stroke-linecap="round" opacity="0.617926455776878"/><path d="M291.82942269249634 804.6016888531241 Q279.32980519873047 731.9216420932726 266.8301877049646 688.3136140373616" stroke="#5c4a2c" stroke-width="3.5117122922060835" fill="none" stroke-linecap="round" opacity="0.6945789327106862"/><path d="M1559.1950907396808 779.7064646999842 Q1562.3969604752403 732.8218495240077 1565.5988302107999 704.6910804184218" stroke="#5c4a2c" stroke-width="2.4680101219895314" fill="none" stroke-linecap="round" opacity="0.5110869213678049"/><path d="M939.5878328375759 1060.0799542721643 Q935.5762689888257 945.4513802913292 931.5647051400756 876.6742359028282" stroke="#5c4a2c" stroke-width="2.4127819445081724" fill="none" stroke-linecap="round" opacity="0.4540440210807983"/><path d="M1265.863512221966 1076.2445550892287 Q1268.1171833841788 1030.2140279077073 1270.3708545463915 1002.5957115987944" stroke="#5c4a2c" stroke-width="2.151879327394394" fill="none" stroke-linecap="round" opacity="0.6337322128092828"/><path d="M1334.764108059003 1185.0539580807426 Q1345.6734290401346 1089.2479846263323 1356.5827500212663 1031.7644005536858" stroke="#5c4a2c" stroke-width="3.483373091909633" fill="none" stroke-linecap="round" opacity="0.8359512036492411"/><path d="M370.10412166008706 752.3405522916812 Q384.82674953521695 666.3510218584028 399.54937741034684 614.7573035984357" stroke="#5c4a2c" stroke-width="3.917182872773385" fill="none" stroke-linecap="round" opacity="0.7231463627322148"/><path d="M1247.4793147699486 1064.4685638704755 Q1242.8041113227007 953.013596082113 1238.1289078754528 886.1406154090956" stroke="#5c4a2c" stroke-width="3.0237827758862594" fill="none" stroke-linecap="round" opacity="0.7962140153873496"/><path d="M408.11649937208347 982.3738783735911 Q412.56617145439117 921.560815487355 417.01584353669887 885.0729777556132" stroke="#5c4a2c" stroke-width="3.3958884675498395" fill="none" stroke-linecap="round" opacity="0.8094756282081323"/><path d="M507.9942432611467 825.1946587354049 Q493.6338844132203 786.8680761024239 479.2735255652938 763.8721265226353" stroke="#5c4a2c" stroke-width="2.76332380757424" fill="none" stroke-linecap="round" opacity="0.7830061496824106"/><path d="M1597.9384277201898 803.4124629771495 Q1585.5140417033695 674.109068403151 1573.0896556865491 596.5270316587519" stroke="#5c4a2c" stroke-width="4.363921227203763" fill="none" stroke-linecap="round" opacity="0.6091069711316464"/><path d="M173.6456809458579 885.0673492245173 Q181.00541761512346 754.6051180119257 188.365154284389 676.3277792843708" stroke="#5c4a2c" stroke-width="3.802081529047031" fill="none" stroke-linecap="round" opacity="0.7440107529126976"/><path d="M1387.3676589035351 965.851034684278 Q1397.11795599601 841.3026550284509 1406.8682530884848 766.5736272349545" stroke="#5c4a2c" stroke-width="3.9940985971187013" fill="none" stroke-linecap="round" opacity="0.6579206862277733"/><path d="M1377.8465239060467 768.0450563651203 Q1384.7330938554892 704.2175380455853 1391.6196638049316 665.9210270538643" stroke="#5c4a2c" stroke-width="3.867165112844548" fill="none" stroke-linecap="round" opacity="0.5896413731785674"/><path d="M174.37204597316088 1053.0347986758172 Q182.77265562233384 1004.8460154001763 191.1732652715068 975.9327454347916" stroke="#5c4a2c" stroke-width="3.9940122696470057" fill="none" stroke-linecap="round" opacity="0.47196583802892905"/><path d="M490.6643101896787 1135.8518055533402 Q496.9154053562969 1053.166475496476 503.16650052291516 1003.5552774623577" stroke="#5c4a2c" stroke-width="3.820175130177739" fill="none" stroke-linecap="round" opacity="0.57529341808914"/><path d="M989.5480538525609 993.9989801407146 Q1000.1910489851116 874.4336874837088 1010.8340441176624 802.6945118895053" stroke="#5c4a2c" stroke-width="3.0337646282735458" fill="none" stroke-linecap="round" opacity="0.5237815502441838"/><path d="M926.2664257127495 797.7915048406005 Q926.3436361441572 679.3336783263811 926.4208465755651 608.2589824178494" stroke="#5c4a2c" stroke-width="2.452465428958898" fill="none" stroke-linecap="round" opacity="0.6861974477665924"/><path d="M192.8597978371766 970.216670749724 Q194.4955117881605 905.8480441692902 196.13122573914444 867.2268682210299" stroke="#5c4a2c" stroke-width="4.470979643640893" fill="none" stroke-linecap="round" opacity="0.8395319127246343"/><path d="M734.2562206446006 865.9914901160712 Q741.8444558531102 778.1784145600177 749.4326910616198 725.4905692263856" stroke="#5c4a2c" stroke-width="4.819204059905193" fill="none" stroke-linecap="round" opacity="0.7209443913050725"/><path d="M1335.765193050758 922.6653868423416 Q1339.9611308925791 879.4773916078852 1344.1570687344001 853.5645944672114" stroke="#5c4a2c" stroke-width="3.1402163232017664" fill="none" stroke-linecap="round" opacity="0.5095636831155428"/><path d="M420.2190900723867 901.678799979845 Q416.75820774722723 849.7756013540741 413.2973254220678 818.6336821786114" stroke="#5c4a2c" stroke-width="3.7540737938482227" fill="none" stroke-linecap="round" opacity="0.5877914808719072"/><path d="M504.0731977579016 975.7197938702291 Q491.7318377893166 897.4310590201553 479.39047782073163 850.457818110111" stroke="#5c4a2c" stroke-width="3.7865162765967364" fill="none" stroke-linecap="round" opacity="0.4615198631726266"/><path d="M1414.6632474994694 1095.7701559392424 Q1418.0363448059104 1049.5799203387019 1421.4094421123514 1021.8657789783776" stroke="#5c4a2c" stroke-width="3.3422282626030118" fill="none" stroke-linecap="round" opacity="0.6787037059594749"/><path d="M760.2741858946414 1088.618987720871 Q768.9521916661661 1007.318395703438 777.6301974376906 958.5380404929783" stroke="#5c4a2c" stroke-width="4.587232882262661" fill="none" stroke-linecap="round" opacity="0.4914230391469589"/><path d="M84.85709091178748 798.583113332236 Q92.48665864248122 746.9077893223878 100.11622637317495 715.9025949164788" stroke="#5c4a2c" stroke-width="3.7018649125784284" fill="none" stroke-linecap="round" opacity="0.5000676921709868"/><path d="M778.2266300218895 979.9376884402681 Q786.9463086585729 861.706832080229 795.6659872952563 790.7683182642056" stroke="#5c4a2c" stroke-width="2.737789091561225" fill="none" stroke-linecap="round" opacity="0.5899611144237885"/><path d="M59.44736441512628 1119.8024176636568 Q60.780554771566486 1043.6414029425193 62.1137451280067 997.9447941098367" stroke="#5c4a2c" stroke-width="2.126445988023443" fill="none" stroke-linecap="round" opacity="0.6247254941869205"/><path d="M923.5665302306072 1146.965041320446 Q928.6819232129021 1091.0021460300911 933.797316195197 1057.424408855878" stroke="#5c4a2c" stroke-width="3.7653130452458736" fill="none" stroke-linecap="round" opacity="0.45259779754468155"/><path d="M517.4745380011881 938.8520584430653 Q530.3355928623815 807.4588446558478 543.1966477235751 728.6229163835173" stroke="#5c4a2c" stroke-width="4.455771390025397" fill="none" stroke-linecap="round" opacity="0.6780444438240247"/><path d="M1321.630674147229 1197.9158544460076 Q1330.4456295739842 1101.9619830890927 1339.2605850007396 1044.3896602749437" stroke="#5c4a2c" stroke-width="2.080869590800358" fill="none" stroke-linecap="round" opacity="0.4771385950475755"/><path d="M557.8699417377669 1081.0044503524316 Q572.1897696989392 1030.9041221792984 586.5095976601116 1000.8439252754183" stroke="#5c4a2c" stroke-width="4.433743786427953" fill="none" stroke-linecap="round" opacity="0.4871263514003889"/><path d="M73.20973201607276 757.702844874223 Q79.07402718032651 630.39073432595 84.93832234458026 554.0034679969862" stroke="#5c4a2c" stroke-width="2.6634167330328418" fill="none" stroke-linecap="round" opacity="0.5866673597770872"/><path d="M183.88001521290906 887.2073826813471 Q191.19888403063007 778.2152580129114 198.51775284835105 712.8199832118498" stroke="#5c4a2c" stroke-width="2.792794157778127" fill="none" stroke-linecap="round" opacity="0.8107761362958754"/><path d="M1495.1078559319851 814.8731321155894 Q1489.1860549640885 720.7859879405909 1483.2642539961917 664.3337014355918" stroke="#5c4a2c" stroke-width="4.578588186166578" fill="none" stroke-linecap="round" opacity="0.5829257123252019"/><path d="M1242.341732075033 965.744157005122 Q1249.6279879907945 855.2271753442195 1256.914243906556 788.9169863476781" stroke="#5c4a2c" stroke-width="3.9493488894771507" fill="none" stroke-linecap="round" opacity="0.8494518992105549"/><path d="M885.019277986229 1019.3677460462231 Q886.2781021324648 891.0137613081134 887.5369262787008 814.0013704652476" stroke="#5c4a2c" stroke-width="2.478297625886188" fill="none" stroke-linecap="round" opacity="0.5556407596594526"/><path d="M902.4858714559691 819.8265803084687 Q904.2491089918385 703.7472774651444 906.012346527708 634.0996957591498" stroke="#5c4a2c" stroke-width="2.0114272628802548" fill="none" stroke-linecap="round" opacity="0.7939051296183439"/><path d="M1565.602643601406 780.9812500077094 Q1571.9615719989688 653.2730614103516 1578.3205003965315 576.6481482519368" stroke="#5c4a2c" stroke-width="4.46044304568213" fill="none" stroke-linecap="round" opacity="0.7299673294632607"/><path d="M1175.0133284777496 1135.1971620942124 Q1168.7532993277696 1022.9425610010131 1162.4932701777893 955.5898003450935" stroke="#5c4a2c" stroke-width="4.321723074044122" fill="none" stroke-linecap="round" opacity="0.5415513452158006"/><path d="M1461.968513649365 789.2630913185561 Q1451.426303801556 742.1580488875376 1440.8840939537474 713.8950234289264" stroke="#5c4a2c" stroke-width="2.6231299777353376" fill="none" stroke-linecap="round" opacity="0.6238799986205876"/><path d="M955.2519601612652 784.1996249056782 Q957.5958955932565 698.0672953763419 959.9398310252478 646.3878976587401" stroke="#5c4a2c" stroke-width="4.835171038786388" fill="none" stroke-linecap="round" opacity="0.6394768704221307"/><path d="M1314.8238126647218 876.2314077309303 Q1306.891973083748 820.4542920077046 1298.9601335027744 786.9880225737691" stroke="#5c4a2c" stroke-width="2.492996472236083" fill="none" stroke-linecap="round" opacity="0.8363466670012004"/><path d="M1453.297097194871 988.6345480757268 Q1468.0734337394283 951.073755041177 1482.8497702839857 928.5372792204472" stroke="#5c4a2c" stroke-width="4.700650242159219" fill="none" stroke-linecap="round" opacity="0.772726336090078"/><path d="M824.0459796897366 1120.8957799377524 Q822.8589976386014 1081.4467467500795 821.6720155874664 1057.7773268374758" stroke="#5c4a2c" stroke-width="2.7254806405057153" fill="none" stroke-linecap="round" opacity="0.6320515112467746"/><path d="M256.8322865001006 1187.3619899244459 Q267.33160195610446 1068.260295208741 277.8309174121083 996.7992783793179" stroke="#5c4a2c" stroke-width="4.437157819391034" fill="none" stroke-linecap="round" opacity="0.45955834508885646"/><path d="M369.7013273642586 1147.135629097373 Q383.950163282916 1048.0580165184565 398.1989992015734 988.6114489711066" stroke="#5c4a2c" stroke-width="2.1112210486384146" fill="none" stroke-linecap="round" opacity="0.45586147625567847"/><path d="M963.0805570797115 819.497645570281 Q975.3800881658087 690.3582944481275 987.6796192519059 612.8746837748355" stroke="#5c4a2c" stroke-width="3.1245909052479828" fill="none" stroke-linecap="round" opacity="0.8318485980719293"/><path d="M439.87495731687056 1094.7494378206704 Q437.1993885024105 1035.354897939936 434.52381968795044 999.7181740114955" stroke="#5c4a2c" stroke-width="4.21652177095234" fill="none" stroke-linecap="round" opacity="0.8309171528257497"/><path d="M265.8839215491726 774.8070321238753 Q265.35311704127486 734.5778775673523 264.8223125333771 710.4403848334385" stroke="#5c4a2c" stroke-width="2.6895816270758104" fill="none" stroke-linecap="round" opacity="0.6108429289361622"/><path d="M1292.3598605511393 975.1881921506247 Q1303.2780843583314 840.8783743049038 1314.1963081655235 760.2924835974713" stroke="#5c4a2c" stroke-width="2.8869159995505473" fill="none" stroke-linecap="round" opacity="0.7650823475388656"/><path d="M531.6814964539851 984.1566578263063 Q541.1340949564476 930.2131489772713 550.58669345891 897.8470436678504" stroke="#5c4a2c" stroke-width="3.512732572876871" fill="none" stroke-linecap="round" opacity="0.6862100728986926"/><path d="M1492.018974703152 842.2469273868338 Q1489.26321088392 787.6382630904898 1486.507447064688 754.8730645126833" stroke="#5c4a2c" stroke-width="4.846507893026384" fill="none" stroke-linecap="round" opacity="0.8483135519811658"/><path d="M529.7538540432477 1074.636161224047 Q527.4217652120788 954.089598502184 525.08967638091 881.7616608690662" stroke="#5c4a2c" stroke-width="3.106751544089631" fill="none" stroke-linecap="round" opacity="0.7445609967129901"/><path d="M225.2235467807857 1035.32365263187 Q239.387589459586 921.0692086125403 253.55163213838628 852.5165422009425" stroke="#5c4a2c" stroke-width="3.8594313561399174" fill="none" stroke-linecap="round" opacity="0.5818292453714519"/><path d="M1383.6653712110615 1184.785504051073 Q1387.84791436329 1125.4700448011072 1392.030457515519 1089.8807692511277" stroke="#5c4a2c" stroke-width="2.978824050567928" fill="none" stroke-linecap="round" opacity="0.5089694407108768"/><path d="M90.74956509621295 1137.1614665454601 Q78.86677147431875 1094.0073580708004 66.98397785242456 1068.1148929860046" stroke="#5c4a2c" stroke-width="2.7645227192613238" fill="none" stroke-linecap="round" opacity="0.672851504901006"/><path d="M813.0762384049626 814.9946988623542 Q810.5468290288958 692.4710732141377 808.017419652829 618.9568978252079" stroke="#5c4a2c" stroke-width="2.5093140827668776" fill="none" stroke-linecap="round" opacity="0.8390137755297455"/><path d="M507.5830836914356 1072.771766171082 Q517.6049911178236 997.9104325773321 527.6268985442116 952.9936324210821" stroke="#5c4a2c" stroke-width="2.9904009447587243" fill="none" stroke-linecap="round" opacity="0.7679294735259128"/><path d="M1153.8754470469928 1164.1150622654814 Q1149.5734462238406 1107.8484045927894 1145.2714454006884 1074.0884099891741" stroke="#5c4a2c" stroke-width="2.254449214390057" fill="none" stroke-linecap="round" opacity="0.46202210795693016"/><path d="M225.57568732972317 1150.0531768104925 Q216.57097752099023 1076.251361459927 207.5662677122573 1031.9702722495877" stroke="#5c4a2c" stroke-width="2.97220272246896" fill="none" stroke-linecap="round" opacity="0.5783119796143226"/><path d="M1208.2235177252041 800.3910317114587 Q1207.937007960039 708.1904958062296 1207.650498194874 652.8701742630922" stroke="#5c4a2c" stroke-width="3.797129622402321" fill="none" stroke-linecap="round" opacity="0.7914086536209863"/><path d="M1297.1447112013952 817.0537736874284 Q1298.1890362142524 731.1288517737574 1299.2333612271093 679.5738986255549" stroke="#5c4a2c" stroke-width="3.7899163519120087" fill="none" stroke-linecap="round" opacity="0.6950990300806674"/><path d="M839.9924102877624 1116.012273478205 Q838.4763170271062 1012.8609288684178 836.9602237664501 950.9701221025452" stroke="#5c4a2c" stroke-width="4.750204395307055" fill="none" stroke-linecap="round" opacity="0.6401052921558775"/><path d="M196.33246332812462 980.3608396597382 Q203.15153506085517 855.3084690666242 209.97060679358572 780.2770467107557" stroke="#5c4a2c" stroke-width="2.7468200152531668" fill="none" stroke-linecap="round" opacity="0.5591694215429246"/><path d="M775.2795660881961 850.267560927319 Q773.5037776370756 807.068828146052 771.727989185955 781.1495884772919" stroke="#5c4a2c" stroke-width="4.230244012664434" fill="none" stroke-linecap="round" opacity="0.6907527808077858"/><path d="M1086.7353449984205 896.1329750264979 Q1075.086654163099 780.8639840993112 1063.4379633277774 711.7025895429991" stroke="#5c4a2c" stroke-width="4.336890745104565" fill="none" stroke-linecap="round" opacity="0.7726650921358773"/><path d="M261.91667547465494 1079.4138553663097 Q266.5643881978647 1000.7416876680076 271.2121009210744 953.5383870490263" stroke="#5c4a2c" stroke-width="3.893457704651108" fill="none" stroke-linecap="round" opacity="0.8057309947341944"/><path d="M823.9381424929181 1040.513742841496 Q809.7884195871474 906.0033142236501 795.6386966813766 825.2970570529426" stroke="#5c4a2c" stroke-width="2.9988065933163512" fill="none" stroke-linecap="round" opacity="0.5489083277671791"/><path d="M1314.6392222221232 1111.380728572237 Q1317.0288372751272 987.9485961741689 1319.4184523281313 913.8893167353278" stroke="#5c4a2c" stroke-width="2.4782983382326056" fill="none" stroke-linecap="round" opacity="0.7009648850660908"/><path d="M424.9302180775258 1091.182953224783 Q427.9177489801165 1018.2801337112708 430.9052798827072 974.5384420031634" stroke="#5c4a2c" stroke-width="2.000913170547739" fill="none" stroke-linecap="round" opacity="0.7327069768147815"/><path d="M589.5571990260783 905.5450702078361 Q579.7438845780757 791.0470335988107 569.9305701300733 722.3482116333954" stroke="#5c4a2c" stroke-width="4.3299935414718105" fill="none" stroke-linecap="round" opacity="0.722761086783603"/><path d="M1476.2096548998659 955.8911134952672 Q1473.053610545592 825.2014816200709 1469.8975661913182 746.7877024949531" stroke="#5c4a2c" stroke-width="2.6576449493471666" fill="none" stroke-linecap="round" opacity="0.53542005122313"/><path d="M623.039874128653 798.1473246588395 Q630.5160331298665 698.3876915766367 637.9921921310801 638.5319117273151" stroke="#5c4a2c" stroke-width="3.9020088864126663" fill="none" stroke-linecap="round" opacity="0.7898865351122066"/><path d="M1093.801959948672 1146.5185086931779 Q1092.902706990164 1057.754611138704 1092.0034540316558 1004.4962726060196" stroke="#5c4a2c" stroke-width="4.629855878789989" fill="none" stroke-linecap="round" opacity="0.80793033572537"/><path d="M727.8591973417192 838.2092630891856 Q719.9137865323961 794.3069128483045 711.9683757230729 767.9655027037758" stroke="#5c4a2c" stroke-width="2.6309266602204113" fill="none" stroke-linecap="round" opacity="0.7069080582559661"/><path d="M582.967153897745 1065.5477134281327 Q573.7832858198412 1025.0901641917003 564.5994177419375 1000.815634649841" stroke="#5c4a2c" stroke-width="3.2499711970601006" fill="none" stroke-linecap="round" opacity="0.6847641204898341"/><path d="M1415.1732534816676 926.7856048855442 Q1402.341158698753 790.9666860962764 1389.509063915838 709.4753348227157" stroke="#5c4a2c" stroke-width="2.27995538693488" fill="none" stroke-linecap="round" opacity="0.6865558136131615"/><path d="M877.927367828717 1010.4083959281932 Q865.0286620738655 944.4378552350167 852.1299563190138 904.8555308191109" stroke="#5c4a2c" stroke-width="2.8548497461459" fill="none" stroke-linecap="round" opacity="0.5686665890540015"/><path d="M156.65271171217938 949.2748545005426 Q154.429121071598 849.9055348383581 152.2055304310166 790.2839430410475" stroke="#5c4a2c" stroke-width="4.623534659366204" fill="none" stroke-linecap="round" opacity="0.5707187355021842"/><path d="M1468.396272260284 814.4689317959014 Q1478.1409264788333 700.2876866263618 1487.885580697383 631.7789395246382" stroke="#5c4a2c" stroke-width="2.3091001168905603" fill="none" stroke-linecap="round" opacity="0.563751985284378"/><path d="M394.00988410822055 886.122271235605 Q404.05310560415984 800.1735764669216 414.0963271000992 748.6043596057116" stroke="#5c4a2c" stroke-width="3.801228261351606" fill="none" stroke-linecap="round" opacity="0.7523024833005725"/><path d="M1461.0134379773306 779.6016836782575 Q1459.3636420078572 692.7964920085974 1457.7138460383837 640.7133770068012" stroke="#5c4a2c" stroke-width="4.437871796782342" fill="none" stroke-linecap="round" opacity="0.6373115623004709"/><path d="M1436.8205711204896 925.2682860537818 Q1428.2821360729893 814.3280978301597 1419.743701025489 747.7639848959864" stroke="#5c4a2c" stroke-width="4.447531287324795" fill="none" stroke-linecap="round" opacity="0.6179161463240554"/><path d="M1130.1093970633485 911.5163036818963 Q1127.9590480922984 817.4351543989576 1125.8086991212483 760.9864648291943" stroke="#5c4a2c" stroke-width="3.6393627197283043" fill="none" stroke-linecap="round" opacity="0.5959658619583698"/><path d="M886.4915953702643 820.2202117349395 Q881.4265098332455 776.401451245988 876.3614242962268 750.1101949526171" stroke="#5c4a2c" stroke-width="3.2797686639505903" fill="none" stroke-linecap="round" opacity="0.47783588074033506"/><path d="M1122.6574252817527 1165.3439942090365 Q1118.9505368328646 1117.5311285904777 1115.2436483839765 1088.8434092193424" stroke="#5c4a2c" stroke-width="4.704986122908705" fill="none" stroke-linecap="round" opacity="0.49286666893860165"/><path d="M605.1739210331539 974.0277755618567 Q608.5095717602552 914.7550657476713 611.8452224873565 879.1914398591601" stroke="#5c4a2c" stroke-width="3.4337548552739428" fill="none" stroke-linecap="round" opacity="0.6863563131003754"/><path d="M61.89698522440672 945.3472694112113 Q51.83529991445011 843.3746879878282 41.7736146044935 782.1911391337984" stroke="#5c4a2c" stroke-width="3.0350865255829502" fill="none" stroke-linecap="round" opacity="0.6847639323404557"/><path d="M994.8944870790311 1153.9944587675511 Q1005.109575818889 1106.5869344620623 1015.3246645587468 1078.142419878769" stroke="#5c4a2c" stroke-width="3.7280018310804115" fill="none" stroke-linecap="round" opacity="0.5864754442607351"/><path d="M811.3132287130978 1073.4515069120234 Q819.8418668037707 1004.8828446522704 828.3705048944437 963.7416472964185" stroke="#5c4a2c" stroke-width="2.1930051238978265" fill="none" stroke-linecap="round" opacity="0.5922087888547629"/><path d="M727.3059286911229 1016.623713664067 Q719.1489829263191 922.9370242301369 710.9920371615153 866.7250105697789" stroke="#5c4a2c" stroke-width="4.341677924276656" fill="none" stroke-linecap="round" opacity="0.6457406965564711"/><path d="M1464.6512988875695 954.8074555325994 Q1452.2967382034626 845.3771913680047 1439.942177519356 779.7190328692479" stroke="#5c4a2c" stroke-width="4.2484129052256545" fill="none" stroke-linecap="round" opacity="0.726244293505822"/><path d="M359.81664643816396 1013.1982262937207 Q367.6084117310174 971.7614510499953 375.40017702387075 946.89938590376" stroke="#5c4a2c" stroke-width="2.817132196380296" fill="none" stroke-linecap="round" opacity="0.6833580166520088"/><path d="M231.0159937120847 1115.212920545073 Q220.16288984419347 1059.5137484154734 209.30978597630224 1026.0942451377136" stroke="#5c4a2c" stroke-width="2.305690158850889" fill="none" stroke-linecap="round" opacity="0.7749490855835086"/><path d="M184.09395521669262 746.1373509745578 Q195.8005146735442 701.4248941937825 207.50707413039578 674.5974201253174" stroke="#5c4a2c" stroke-width="3.4779513848248826" fill="none" stroke-linecap="round" opacity="0.7507686307726092"/><path d="M520.369551922062 1170.1379925967344 Q510.4830597725627 1094.0734033297288 500.59656762306344 1048.4346497695253" stroke="#5c4a2c" stroke-width="2.3208605244218035" fill="none" stroke-linecap="round" opacity="0.6375912823939229"/><path d="M223.14934922538453 824.1496276099026 Q237.9628717707725 689.8814423999414 252.77639431616043 609.3205312739647" stroke="#5c4a2c" stroke-width="2.0705577718446526" fill="none" stroke-linecap="round" opacity="0.5510010970642476"/><path d="M341.80535908565923 1134.7343000926662 Q354.63867378799574 1047.7936908134523 367.47198849033225 995.6293252459241" stroke="#5c4a2c" stroke-width="4.449120908923696" fill="none" stroke-linecap="round" opacity="0.64145312192023"/><path d="M1276.164009137425 958.6179511418782 Q1285.9328795520314 889.271843207438 1295.701749966638 847.6641784467739" stroke="#5c4a2c" stroke-width="3.323260948374488" fill="none" stroke-linecap="round" opacity="0.704339338947968"/><path d="M620.0783985373322 846.77111894782 Q633.6982480884453 735.8965119406877 647.3180976395585 669.3717477364082" stroke="#5c4a2c" stroke-width="2.68385187441804" fill="none" stroke-linecap="round" opacity="0.7112153576090648"/>

<rect x="0" y="0" width="1600" height="1200" filter="url(#grain203)"/>
<rect x="0" y="0" width="1600" height="1200" fill="url(#vig203)"/>
</svg>