<svg xmlns="http://www.w3.org/2000/svg" viewBox="0 0 1600 1200" width="1600" height="1200" preserveAspectRatio="xMidYMid slice">
<defs>

<linearGradient id="sky202" x1="0" y1="0" x2="0" y2="1">
<stop offset="0%" stop-color="#d9ecd8"/><stop offset="100%" stop-color="#8fbf9a"/>
</linearGradient>

<filter id="grain202"><feTurbulence type="fractalNoise" baseFrequency="0.85" numOctaves="2" seed="202" stitchTiles="stitch" result="noise"/><feColorMatrix in="noise" type="matrix" values="0 0 0 0 0  0 0 0 0 0  0 0 0 0 0  0 0 0 0.035 0"/></filter>
<radialGradient id="vig202" cx="50%" cy="42%" r="75%"><stop offset="55%" stop-color="#000" stop-opacity="0"/><stop offset="100%" stop-color="#000" stop-opacity="0.30"/></radialGradient>
</defs>

<rect x="0" y="0" width="1600" height="744.0" fill="url(#sky202)"/>
<rect x="0" y="744.0" width="1600" height="456.0" fill="#2c5652"/>
<path d="M1222.2105191414328 1038.0200224953558 Q1213.1531423534668 959.5762144813605 1204.095765565501 912.5099296729634" stroke="#3c5c3a" stroke-width="4.03010100270814" fill="none" stroke-linecap="round" opacity="0.8377143265490701"/><path d="M684.3953423817471 1131.9989359214082 Q685.2289236190913 1090.8911055913234 686.0625048564356 1066.2264073932727" stroke="#3c5c3a" stroke-width="2.604659637155526" fill="none" stroke-linecap="round" opacity="0.6477064091853957"/><path d="M978.0043572741802 1134.2941618344976 Q989.0695254468084 1044.4975783368009 1000.1346936194367 990.6196282381827" stroke="#3c5c3a" stroke-width="2.9803380402049724" fill="none" stroke-linecap="round" opacity="0.5013639581969803"/><path d="M743.9151852773488 1070.1525862339543 Q730.0175440184411 961.8581456836343 716.1199027595335 896.8814813534425" stroke="#3c5c3a" stroke-width="2.745714450318418" fill="none" stroke-linecap="round" opacity="0.5517378969399155"/><path d="M754.5274957886388 1136.9361318386561 Q740.904048578312 1072.345202413926 727.2806013679852 1033.590644759088" stroke="#3c5c3a" stroke-width="4.694132488456997" fill="none" stroke-linecap="round" opacity="0.7976800371013555"/><path d="M1233.119453190061 761.6416359936172 Q1223.4232808363593 698.0705591447967 1213.7271084826575 659.9279130355043" stroke="#3c5c3a" stroke-width="4.744953756071714" fill="none" stroke-linecap="round" opacity="0.4999105076725864"/><path d="M203.99254415636517 844.6140557698868 Q194.9332212558289 728.0151518946985 185.87389835529262 658.0558095695856" stroke="#3c5c3a" stroke-width="4.950127413223461" fill="none" stroke-linecap="round" opacity="0.5732620236131498"/><path d="M1040.1298564756553 831.4957737343129 Q1051.092044598821 764.7902016235819 1062.0542327219866 724.7668583571432" stroke="#3c5c3a" stroke-width="4.9926806710490235" fill="none" stroke-linecap="round" opacity="0.5469396501036405"/><path d="M559.1933699726585 770.16740131118 Q555.7122145752578 713.2078156202326 552.2310591778571 679.0320642056641" stroke="#3c5c3a" stroke-width="3.563388886209052" fill="none" stroke-linecap="round" opacity="0.6791306535786004"/><path d="M559.1208268328323 816.0698056646933 Q554.5883240668554 722.9994909306756 550.0558213008784 667.157302090265" stroke="#3c5c3a" stroke-width="3.0353588784727763" fill="none" stroke-linecap="round" opacity="0.8392834967319488"/><path d="M939.6147885843852 750.9000643260355 Q953.705822036624 617.6919625871116 967.7968554888628 537.7671015437572" stroke="#3c5c3a" stroke-width="3.169753474820898" fill="none" stroke-linecap="round" opacity="0.8418551782343915"/><path d="M168.0575524320238 1162.911401870157 Q178.97845155376783 1108.5245847636681 189.89935067551187 1075.892494499775" stroke="#3c5c3a" stroke-width="4.0321790464097536" fill="none" stroke-linecap="round" opacity="0.8333347282140084"/><path d="M483.649504072935 1042.191284246153 Q472.51496681410083 910.6340834805145 461.38042955526663 831.6997630211314" stroke="#3c5c3a" stroke-width="2.555312320533169" fill="none" stroke-linecap="round" opacity="0.6728239878021831"/><path d="M213.91157436026606 768.8699138172815 Q209.320387954362 729.8176016131 204.72920154845792 706.386214290591" stroke="#3c5c3a" stroke-width="3.9498806918632954" fill="none" stroke-linecap="round" opacity="0.6363431416375442"/><path d="M966.6132347112548 756.0241492683881 Q968.5760193454284 708.3993830469345 970.538803979602 679.8245233140624" stroke="#3c5c3a" stroke-width="2.4704126932559785" fill="none" stroke-linecap="round" opacity="0.4551299777093122"/><path d="M98.58962065121321 1041.2585212085187 Q98.47875676824667 907.7655126787681 98.36789288528013 827.6697075609177" stroke="#3c5c3a" stroke-width="2.0188677169472853" fill="none" stroke-linecap="round" opacity="0.527911780841402"/><path d="M1090.067764221773 1105.4493376571372 Q1089.0924017037469 1047.3451560603523 1088.1170391857208 1012.4826471022814" stroke="#3c5c3a" stroke-width="2.1089251994184397" fill="none" stroke-linecap="round" opacity="0.6660980172577666"/><path d="M1209.7240141328143 971.8149001529122 Q1201.7514837491824 855.7871697100126 1193.7789533655507 786.1705314442729" stroke="#3c5c3a" stroke-width="3.9980958692575506" fill="none" stroke-linecap="round" opacity="0.6382865427167621"/><path d="M965.7461186979917 777.2047725803012 Q969.3466983746043 694.3153956495813 972.947278051217 644.5817694911494" stroke="#3c5c3a" stroke-width="2.702516453329171" fill="none" stroke-linecap="round" opacity="0.6715742355813499"/><path d="M31.47151520661602 934.5898767764302 Q35.88302937999036 802.9695947969346 40.2945435533647 723.9974256092373" stroke="#3c5c3a" stroke-width="3.518438435217651" fill="none" stroke-linecap="round" opacity="0.7984322964583189"/><path d="M1109.742803515147 976.0594221704436 Q1120.955400645353 901.0403249184199 1132.1679977755587 856.0288665672056" stroke="#3c5c3a" stroke-width="3.6929845106466486" fill="none" stroke-linecap="round" opacity="0.6450225530278156"/><path d="M594.2474163844522 813.6639929555088 Q597.3233601713821 757.1166223279249 600.3993039583121 723.1881999513745" stroke="#3c5c3a" stroke-width="3.611937740478715" fill="none" stroke-linecap="round" opacity="0.7598277734561705"/><path d="M718.577068995487 919.3356085253979 Q711.1157001414668 826.3041744669843 703.6543312874467 770.485314031936" stroke="#3c5c3a" stroke-width="4.884723065323668" fill="none" stroke-linecap="round" opacity="0.7041083214242454"/><path d="M481.1813910157639 968.1910259877016 Q494.70822696711303 846.6138017628336 508.2350629184622 773.6674672279128" stroke="#3c5c3a" stroke-width="4.0996487283860095" fill="none" stroke-linecap="round" opacity="0.8009589769797056"/><path d="M1290.6426098411976 911.5066166825186 Q1289.595491568224 832.2245134880881 1288.5483732952503 784.6552515714297" stroke="#3c5c3a" stroke-width="2.1561900593253496" fill="none" stroke-linecap="round" opacity="0.6865886353144557"/><path d="M883.6388731100275 1102.912241398599 Q897.9552728566423 1031.4232072960135 912.2716726032571 988.5297868344621" stroke="#3c5c3a" stroke-width="4.2162143727648935" fill="none" stroke-linecap="round" opacity="0.681543663785094"/><path d="M364.1747246089068 1169.8918351067014 Q368.19308228209053 1064.0457510060844 372.21143995527433 1000.5381005457142" stroke="#3c5c3a" stroke-width="2.581253129529898" fill="none" stroke-linecap="round" opacity="0.5292724052118841"/><path d="M314.0486378390035 1162.7095217795627 Q320.08448901475157 1080.9172871348758 326.1203401904996 1031.8419463480636" stroke="#3c5c3a" stroke-width="4.075225815407617" fill="none" stroke-linecap="round" opacity="0.7748953815815607"/><path d="M462.1790091658555 836.055463072809 Q451.40101664826955 702.2562261113652 440.6230241306836 621.9766839344989" stroke="#3c5c3a" stroke-width="4.999438699573218" fill="none" stroke-linecap="round" opacity="0.6084457844923369"/><path d="M34.30155561599708 881.2398849268582 Q31.46193341345797 767.0995951321845 28.62231121091886 698.6154212553803" stroke="#3c5c3a" stroke-width="2.418421534842156" fill="none" stroke-linecap="round" opacity="0.48104711290130614"/><path d="M79.026516185478 1004.7680836136608 Q84.36296456387396 930.5988524401176 89.69941294226993 886.0973137359917" stroke="#3c5c3a" stroke-width="2.3774446534038787" fill="none" stroke-linecap="round" opacity="0.5636541523463483"/><path d="M885.5699470815081 892.4442490851129 Q878.3909681172732 785.5291229491991 871.2119891530384 721.3800472676508" stroke="#3c5c3a" stroke-width="4.252193547880541" fill="none" stroke-linecap="round" opacity="0.7154846764007909"/><path d="M660.0161393024072 1065.1877658057447 Q672.6301220760697 993.0271347961293 685.2441048497321 949.73075619036" stroke="#3c5c3a" stroke-width="4.224207235215776" fill="none" stroke-linecap="round" opacity="0.5642441040321899"/><path d="M1360.5907323558565 1030.1526052682887 Q1366.8923524851396 906.2456438487898 1373.1939726144226 831.9014669970904" stroke="#3c5c3a" stroke-width="4.742088464038065" fill="none" stroke-linecap="round" opacity="0.6674436778387229"/><path d="M551.2081424800026 1079.2739989927557 Q551.9577735577901 949.1362141659341 552.7074046355777 871.0535432698413" stroke="#3c5c3a" stroke-width="4.148366068945293" fill="none" stroke-linecap="round" opacity="0.6919601060019094"/><path d="M532.071606037791 835.3915822399869 Q522.0810256118764 735.594944877119 512.0904451859619 675.7169624593982" stroke="#3c5c3a" stroke-width="3.3414531184618204" fill="none" stroke-linecap="round" opacity="0.7600950055637303"/><path d="M609.4919486491958 941.4139220856197 Q612.2054566454511 807.3603316521546 614.9189646417066 726.9281773920757" stroke="#3c5c3a" stroke-width="3.6218974933252044" fill="none" stroke-linecap="round" opacity="0.5273517402353692"/><path d="M1198.0317007040392 911.9723908085527 Q1211.6409164788486 802.8439098078368 1225.250132253658 737.3668212074072" stroke="#3c5c3a" stroke-width="4.494763214744765" fill="none" stroke-linecap="round" opacity="0.538338172341297"/><path d="M1485.73748880643 1047.4584249652319 Q1472.0454762459713 992.431662254481 1458.3534636855125 959.4156046280305" stroke="#3c5c3a" stroke-width="2.7434196789527556" fill="none" stroke-linecap="round" opacity="0.6837982245054961"/><path d="M775.937381289909 746.0467208781391 Q762.9303122039723 613.6712138421366 749.9232431180357 534.245909620535" stroke="#3c5c3a" stroke-width="4.515725443326875" fill="none" stroke-linecap="round" opacity="0.6486233177044114"/><path d="M1278.5282618027804 1113.2912287681263 Q1274.858192825812 1006.1931773723394 1271.1881238488438 941.9343465348672" stroke="#3c5c3a" stroke-width="3.5557222505115567" fill="none" stroke-linecap="round" opacity="0.5315363761650709"/><path d="M420.29000270239027 754.2123058757364 Q432.33848419207675 680.2041808875919 444.3869656817633 635.7993058947051" stroke="#3c5c3a" stroke-width="4.1588513680651165" fill="none" stroke-linecap="round" opacity="0.47493215262714905"/><path d="M547.8909080715371 943.108101816097 Q548.1957210861469 853.3308346884166 548.5005341007568 799.4644744118084" stroke="#3c5c3a" stroke-width="4.5124826093394885" fill="none" stroke-linecap="round" opacity="0.5284523825696148"/><path d="M1024.733494225301 1039.3672905240394 Q1014.283301911153 1000.2088244349592 1003.8331095970049 976.7137447815111" stroke="#3c5c3a" stroke-width="2.354621830787699" fill="none" stroke-linecap="round" opacity="0.6966208815485668"/><path d="M1373.6717371390037 1146.108467684005 Q1375.1162308807789 1024.777366404959 1376.560724622554 951.9787056375312" stroke="#3c5c3a" stroke-width="3.8578458709038665" fill="none" stroke-linecap="round" opacity="0.7153458337945426"/><path d="M477.7034839941557 964.9248417118795 Q472.65666118133765 913.9363649657362 467.60983836851955 883.3432789180501" stroke="#3c5c3a" stroke-width="3.097348210798849" fill="none" stroke-linecap="round" opacity="0.8327588098554248"/><path d="M335.1313156387642 966.757177933776 Q321.9638795066783 923.2925497419319 308.7964433745925 897.2137728268254" stroke="#3c5c3a" stroke-width="3.5491013003704244" fill="none" stroke-linecap="round" opacity="0.6862949309100699"/><path d="M838.8605168961226 1194.6479210356192 Q842.6381591253706 1109.5612556179292 846.4158013546187 1058.509256367315" stroke="#3c5c3a" stroke-width="4.628284856511966" fill="none" stroke-linecap="round" opacity="0.5013393681888179"/><path d="M1231.4142021486182 804.395764409722 Q1239.2091760349508 678.8036341175656 1247.0041499212834 603.4483559422717" stroke="#3c5c3a" stroke-width="4.343088619797251" fill="none" stroke-linecap="round" opacity="0.7935780165277533"/><path d="M71.14661456620706 782.309021879462 Q58.107365225573815 703.0093710425315 45.06811588494057 655.4295805403732" stroke="#3c5c3a" stroke-width="4.733332529963441" fill="none" stroke-linecap="round" opacity="0.5206157480618473"/><path d="M371.5014400624785 1074.6689614315114 Q382.32434787381766 1026.3399150160565 393.1472556851568 997.3424871667836" stroke="#3c5c3a" stroke-width="3.0553899451071853" fill="none" stroke-linecap="round" opacity="0.6642590821540932"/><path d="M1338.4228238822898 777.1703301758511 Q1334.8494375003054 714.1927288505156 1331.2760511183212 676.4061680553143" stroke="#3c5c3a" stroke-width="4.12324666949808" fill="none" stroke-linecap="round" opacity="0.566822582159203"/><path d="M674.6156277061222 838.6381745203794 Q672.1794407084835 742.2300166754454 669.743253710845 684.3851219684851" stroke="#3c5c3a" stroke-width="3.9452852152967735" fill="none" stroke-linecap="round" opacity="0.4524137825276208"/><path d="M893.3138109244431 1174.5625440763056 Q885.4152411651156 1113.072808990501 877.5166714057881 1076.178967939018" stroke="#3c5c3a" stroke-width="4.316875173017043" fill="none" stroke-linecap="round" opacity="0.5086857199836933"/><path d="M816.3100878310345 930.8754925015016 Q811.209522365641 876.4997187945871 806.1089569002474 843.8742545704383" stroke="#3c5c3a" stroke-width="4.395109196461177" fill="none" stroke-linecap="round" opacity="0.7028926609759285"/><path d="M399.0249743476271 1013.4910060791738 Q388.7471804271742 876.4782276256005 378.4693865067214 794.2705605534566" stroke="#3c5c3a" stroke-width="4.187185213499161" fill="none" stroke-linecap="round" opacity="0.5036547926079077"/><path d="M414.248163155273 799.3508543190461 Q418.9138393567205 703.843581719639 423.5795155581679 646.5392181599948" stroke="#3c5c3a" stroke-width="4.13606809804633" fill="none" stroke-linecap="round" opacity="0.6869020519344253"/><path d="M962.0789337215385 830.6992578375423 Q951.0976921397148 766.7178822312621 940.1164505578911 728.329056867494" stroke="#3c5c3a" stroke-width="4.947386859381024" fill="none" stroke-linecap="round" opacity="0.48705397976967707"/><path d="M1357.883698366855 918.9879388221518 Q1356.0304147709833 795.7759924558156 1354.1771311751113 721.8488246360139" stroke="#3c5c3a" stroke-width="4.826746805655033" fill="none" stroke-linecap="round" opacity="0.7452836520877131"/><path d="M1239.2395457072569 766.3794616685883 Q1225.1170024542457 661.2489046814824 1210.9944592012348 598.1705704892188" stroke="#3c5c3a" stroke-width="3.8250109736112434" fill="none" stroke-linecap="round" opacity="0.605803563072374"/><path d="M234.5834292035697 960.0664978070077 Q233.7537503025526 891.5673911945091 232.9240714015355 850.4679272270099" stroke="#3c5c3a" stroke-width="3.8514241772904945" fill="none" stroke-linecap="round" opacity="0.4963527724558263"/><path d="M750.4290229294763 936.4475328745384 Q763.5714092172163 807.8259962765578 776.7137955049565 730.6530743177696" stroke="#3c5c3a" stroke-width="2.814355027046219" fill="none" stroke-linecap="round" opacity="0.5950594526057765"/><path d="M732.1873949251404 889.17494488935 Q743.0242920105505 757.075451780797 753.8611890959606 677.8157559156652" stroke="#3c5c3a" stroke-width="2.5334781801811572" fill="none" stroke-linecap="round" opacity="0.7824430904631845"/><path d="M1342.8115924103788 1138.4616147185834 Q1328.2871081358812 1059.3021657393797 1313.7626238613834 1011.8064963518573" stroke="#3c5c3a" stroke-width="4.088989018629816" fill="none" stroke-linecap="round" opacity="0.5240613860883165"/><path d="M1150.7008026244962 796.3710515520858 Q1138.4909849226137 702.1321297113763 1126.281167220731 645.5887766069505" stroke="#3c5c3a" stroke-width="3.7705219570853705" fill="none" stroke-linecap="round" opacity="0.5435667993099467"/><path d="M94.16396356709154 1131.0828825789915 Q98.56812556014816 1018.3610699441182 102.9722875532048 950.7279823631942" stroke="#3c5c3a" stroke-width="3.0446888478088674" fill="none" stroke-linecap="round" opacity="0.6110113322359807"/><path d="M907.0300298378066 846.3917624683138 Q895.2418204969139 740.5782700769921 883.4536111560212 677.0901746421991" stroke="#3c5c3a" stroke-width="2.483341900225665" fill="none" stroke-linecap="round" opacity="0.57120089003349"/><path d="M810.5590691704343 1015.5988333591672 Q812.7908900235996 907.0948042830717 815.0227108767648 841.9923868374144" stroke="#3c5c3a" stroke-width="3.2886687738857607" fill="none" stroke-linecap="round" opacity="0.7975219372923164"/><path d="M845.3737547838042 965.8695174066119 Q852.6835174996655 906.5492994449288 859.9932802155269 870.957168667919" stroke="#3c5c3a" stroke-width="2.151577783923576" fill="none" stroke-linecap="round" opacity="0.7713237895787148"/><path d="M1065.7113498553822 1199.0648732115815 Q1066.0972919229312 1076.6988262898356 1066.4832339904801 1003.279198136788" stroke="#3c5c3a" stroke-width="4.066155144535903" fill="none" stroke-linecap="round" opacity="0.6053947922157163"/><path d="M478.57886662805083 1167.7966266692042 Q485.1203060775857 1090.4950157892115 491.66174552712056 1044.1140492612158" stroke="#3c5c3a" stroke-width="2.0238908753348155" fill="none" stroke-linecap="round" opacity="0.487868814462386"/><path d="M1344.8694174264226 1035.862904682669 Q1348.1027074203002 923.8235834421264 1351.335997414178 856.5999906978008" stroke="#3c5c3a" stroke-width="2.4716063519515994" fill="none" stroke-linecap="round" opacity="0.6462938688619688"/><path d="M824.9423236010304 1004.3049853737496 Q823.3447325641379 868.393132368355 821.7471415272453 786.8460205651185" stroke="#3c5c3a" stroke-width="4.104191655965815" fill="none" stroke-linecap="round" opacity="0.7123679145743247"/><path d="M162.36539981595612 1185.6961122184505 Q176.16378319603518 1106.67647403583 189.96216657611427 1059.2646911262577" stroke="#3c5c3a" stroke-width="4.618658821176698" fill="none" stroke-linecap="round" opacity="0.5697090970300178"/><path d="M957.9317131098785 1042.219162728984 Q950.9639426383342 933.6288435528396 943.99617216679 868.4746520471531" stroke="#3c5c3a" stroke-width="2.570927014851043" fill="none" stroke-linecap="round" opacity="0.5315582341137794"/><path d="M583.234073733847 1181.5831876201685 Q587.8138987046092 1102.034511920522 592.3937236753713 1054.305306500734" stroke="#3c5c3a" stroke-width="4.982360555469588" fill="none" stroke-linecap="round" opacity="0.51356640340045"/><path d="M630.9329279838739 1175.813235777618 Q639.075598502877 1101.953119497064 647.2182690218802 1057.6370497287317" stroke="#3c5c3a" stroke-width="4.334284358804511" fill="none" stroke-linecap="round" opacity="0.8415324922274541"/><path d="M155.3790821466098 907.5998596910547 Q150.34608486077954 782.3773885306426 145.3130875749493 707.2439058343954" stroke="#3c5c3a" stroke-width="2.561115052852376" fill="none" stroke-linecap="round" opacity="0.7594223135075139"/><path d="M329.9660343963648 1047.1822969613418 Q338.10759233500715 929.0598991196338 346.24915027364955 858.186460414609" stroke="#3c5c3a" stroke-width="4.141580210440893" fill="none" stroke-linecap="round" opacity="0.5649085390818489"/><path d="M921.5383794900571 1015.9830614486011 Q929.7794988472318 951.1256829395088 938.0206182044066 912.2112558340535" stroke="#3c5c3a" stroke-width="4.68384147515574" fill="none" stroke-linecap="round" opacity="0.8207663813731382"/><path d="M822.1513887652499 1065.1184512330633 Q823.8014638131735 931.2782954866418 825.4515388610972 850.9742020387889" stroke="#3c5c3a" stroke-width="3.258080013462138" fill="none" stroke-linecap="round" opacity="0.573867858675798"/><path d="M103.96921300750037 1136.9433353552056 Q105.33376572073645 999.7296385007155 106.69831843397253 917.4014203880215" stroke="#3c5c3a" stroke-width="4.398494479528317" fill="none" stroke-linecap="round" opacity="0.8097287775703985"/><path d="M77.75246816646603 915.7932018641391 Q81.21747353161527 824.3302437977397 84.68247889676451 769.4524689579002" stroke="#3c5c3a" stroke-width="2.4699362649375" fill="none" stroke-linecap="round" opacity="0.6322238602369487"/><path d="M547.985086968219 769.3613494226574 Q556.042573555709 659.031974526054 564.1000601431991 592.834349588092" stroke="#3c5c3a" stroke-width="4.859076348473771" fill="none" stroke-linecap="round" opacity="0.7178807466432684"/><path d="M1278.6961710591754 1046.1856167531364 Q1273.364352321186 987.0805151752774 1268.0325335831965 951.6174542285619" stroke="#3c5c3a" stroke-width="2.5791186032264166" fill="none" stroke-linecap="round" opacity="0.655675967564575"/><path d="M1285.578726998828 997.7857314935871 Q1272.8946163633625 957.1434490384831 1260.2105057278973 932.7580795654208" stroke="#3c5c3a" stroke-width="4.012591490967121" fill="none" stroke-linecap="round" opacity="0.695023769168128"/><path d="M944.8052223861348 867.1345521446356 Q950.9427212889739 809.5866373717165 957.0802201918129 775.0578885079651" stroke="#3c5c3a" stroke-width="2.741800104639087" fill="none" stroke-linecap="round" opacity="0.6236077817530521"/><path d="M1173.715840424673 789.1178876101201 Q1165.5687840172911 674.2634775243691 1157.4217276099093 605.3508314729187" stroke="#3c5c3a" stroke-width="4.55926020192724" fill="none" stroke-linecap="round" opacity="0.7643709881430445"/><path d="M1171.2932013138898 1163.3070495948546 Q1180.7328858796518 1030.7085246993852 1190.172570445414 951.1494097621035" stroke="#3c5c3a" stroke-width="2.553243205642629" fill="none" stroke-linecap="round" opacity="0.7754565785875742"/><path d="M180.5849575993248 831.5995172494027 Q176.99377311509105 709.4653414074312 173.40258863085728 636.1848359022483" stroke="#3c5c3a" stroke-width="4.330256795114932" fill="none" stroke-linecap="round" opacity="0.5423394031871488"/><path d="M188.93614652519358 765.4755278505143 Q199.87560384218335 639.5254816915547 210.8150611591731 563.9554539961789" stroke="#3c5c3a" stroke-width="4.870016823030703" fill="none" stroke-linecap="round" opacity="0.651892451641131"/><path d="M1227.8834675786925 918.1027631441586 Q1220.2998775367073 865.7727583257911 1212.716287494722 834.3747554347705" stroke="#3c5c3a" stroke-width="3.6624220560682943" fill="none" stroke-linecap="round" opacity="0.6583108373333503"/><path d="M96.52240016057317 971.3038809534942 Q82.20269512194155 897.6192503635084 67.88299008330992 853.408472009517" stroke="#3c5c3a" stroke-width="2.1566277407299004" fill="none" stroke-linecap="round" opacity="0.5941235568519196"/><path d="M1581.2317898834608 1083.7530836540736 Q1584.3849890001172 1015.4234439859509 1587.5381881167737 974.4256601850773" stroke="#3c5c3a" stroke-width="4.883454415373978" fill="none" stroke-linecap="round" opacity="0.6441519540290761"/><path d="M88.10790150166542 1117.4874612816484 Q97.9546284978001 1011.5281189234308 107.80135549393478 947.9525135085004" stroke="#3c5c3a" stroke-width="4.46166795526214" fill="none" stroke-linecap="round" opacity="0.8359829577755489"/><path d="M1237.0968213322294 855.0805608343225 Q1229.0996240694901 814.5405548957535 1221.1024268067508 790.2165513326121" stroke="#3c5c3a" stroke-width="3.283042242938553" fill="none" stroke-linecap="round" opacity="0.56344514471128"/><path d="M757.0011674145677 867.0603824967509 Q749.6458691086016 763.9529213526482 742.2905708026356 702.0884446661867" stroke="#3c5c3a" stroke-width="3.4047450918312356" fill="none" stroke-linecap="round" opacity="0.4893793983193258"/><path d="M947.2146687151362 1175.9373394373597 Q942.5971619463768 1057.5168086543304 937.9796551776175 986.4644901845128" stroke="#3c5c3a" stroke-width="4.566507190025801" fill="none" stroke-linecap="round" opacity="0.782007460030226"/><path d="M713.7489663670312 1149.5113180265525 Q702.4957429195022 1099.4907117024518 691.242519471973 1069.4783479079915" stroke="#3c5c3a" stroke-width="4.570998815078337" fill="none" stroke-linecap="round" opacity="0.5804492914903726"/><path d="M286.2838218426445 1076.5019609364795 Q274.82694927839157 1006.692282654017 263.3700767141386 964.8064756845395" stroke="#3c5c3a" stroke-width="3.0312050015985554" fill="none" stroke-linecap="round" opacity="0.581852977417286"/><path d="M968.9136327591864 812.2436838870092 Q971.0014487433909 680.188854474032 973.0892647275955 600.9559568262458" stroke="#3c5c3a" stroke-width="2.8257930815175705" fill="none" stroke-linecap="round" opacity="0.6293586143223251"/><path d="M1454.7598699868886 760.9289926787216 Q1446.1857735659398 692.8515225839658 1437.611677144991 652.0050405271122" stroke="#3c5c3a" stroke-width="3.7834897979247275" fill="none" stroke-linecap="round" opacity="0.8365589996414609"/><path d="M839.4007481378142 991.8586014092062 Q844.9311615271852 949.3241807688713 850.4615749165561 923.8035283846702" stroke="#3c5c3a" stroke-width="2.332401057143042" fill="none" stroke-linecap="round" opacity="0.5293338145934727"/><path d="M1004.7164627362039 998.1406803714428 Q996.6998436398294 946.9584454754579 988.6832245434549 916.249104537867" stroke="#3c5c3a" stroke-width="2.240118382248923" fill="none" stroke-linecap="round" opacity="0.819945095245107"/><path d="M1562.6915987359264 945.3693718671431 Q1575.501509083587 834.591646828901 1588.311419431248 768.1250118059559" stroke="#3c5c3a" stroke-width="4.816573596719897" fill="none" stroke-linecap="round" opacity="0.456447638739277"/><path d="M297.29417285482106 1094.9074536469511 Q291.3956717413261 972.9460979387519 285.49717062783117 899.7692845138323" stroke="#3c5c3a" stroke-width="2.1839547087639675" fill="none" stroke-linecap="round" opacity="0.5803094593003134"/><path d="M881.4505806924396 1158.6863593186915 Q876.1035317441183 1116.9340538453937 870.756482795797 1091.882670561415" stroke="#3c5c3a" stroke-width="2.529598558902049" fill="none" stroke-linecap="round" opacity="0.5084657831949583"/><path d="M537.1921078561353 1100.3699531333714 Q525.5791008615635 1029.3635629484234 513.9660938669916 986.7597288374545" stroke="#3c5c3a" stroke-width="4.8412462782514964" fill="none" stroke-linecap="round" opacity="0.45855876688068636"/><path d="M446.58292011218134 1183.9969029310116 Q438.54135806224673 1103.4688629749396 430.4997960123122 1055.1520390012963" stroke="#3c5c3a" stroke-width="4.052036651698694" fill="none" stroke-linecap="round" opacity="0.5903642156311253"/><path d="M970.417279821199 875.134535621837 Q977.5582031851687 801.6393747362349 984.6991265491386 757.5422782048736" stroke="#3c5c3a" stroke-width="4.174260134470125" fill="none" stroke-linecap="round" opacity="0.7037141860525771"/><path d="M1143.4106459474751 882.6023475962054 Q1131.8693027863135 821.9307599012152 1120.3279596251518 785.527807284221" stroke="#3c5c3a" stroke-width="2.9080844472913636" fill="none" stroke-linecap="round" opacity="0.6756987240802811"/><path d="M197.52205894806315 765.2120938551489 Q193.98801754847105 689.5297811758521 190.45397614887895 644.1203935682742" stroke="#3c5c3a" stroke-width="3.2263379299204917" fill="none" stroke-linecap="round" opacity="0.7577640579981544"/><path d="M315.99938141089297 1068.0732641740256 Q309.28787439325964 987.1614024056577 302.5763673756264 938.6142853446369" stroke="#3c5c3a" stroke-width="4.91227163784113" fill="none" stroke-linecap="round" opacity="0.6122033725580842"/><path d="M791.6501378327969 1068.1151672903804 Q795.4005383086129 1017.2030313798404 799.1509387844288 986.6557498335164" stroke="#3c5c3a" stroke-width="2.073422512624521" fill="none" stroke-linecap="round" opacity="0.5850655432612974"/><path d="M665.5026836170249 929.0025897961843 Q677.2868320388724 883.7354090177778 689.07098046072 856.575100550734" stroke="#3c5c3a" stroke-width="2.514784049005838" fill="none" stroke-linecap="round" opacity="0.7264375209740761"/><path d="M141.060597300239 1118.3889414102293 Q134.1809178205745 1018.4956364989337 127.30123834091003 958.5596535521562" stroke="#3c5c3a" stroke-width="3.280302006060449" fill="none" stroke-linecap="round" opacity="0.6689323135617395"/><path d="M10.772459694602787 954.6572746954847 Q6.4057821473426415 894.8447331461603 2.0391046000824957 858.9572082165655" stroke="#3c5c3a" stroke-width="4.825393108183272" fill="none" stroke-linecap="round" opacity="0.47300684672376464"/><path d="M566.8788402285113 789.4059957031649 Q566.064214158624 670.3756919591707 565.2495880887368 598.9575097127741" stroke="#3c5c3a" stroke-width="3.171115947245185" fill="none" stroke-linecap="round" opacity="0.7531668420148272"/><path d="M1335.184893635778 1170.7779658678796 Q1324.0030624001727 1044.100605833475 1312.8212311645675 968.094189812832" stroke="#3c5c3a" stroke-width="3.4751713689107575" fill="none" stroke-linecap="round" opacity="0.6623269849043523"/><path d="M1135.0808334309058 877.9804842314073 Q1134.631586233761 825.2779334438465 1134.1823390366164 793.6564029713098" stroke="#3c5c3a" stroke-width="4.596716954912816" fill="none" stroke-linecap="round" opacity="0.8420319549972095"/><path d="M1089.985477690949 754.5037765702322 Q1088.0887769336175 648.9701824315327 1086.1920761762863 585.6500259483131" stroke="#3c5c3a" stroke-width="4.426420154061995" fill="none" stroke-linecap="round" opacity="0.817158788061658"/><path d="M851.0519293685118 1117.663156527021 Q865.8153450292339 999.4880559141837 880.578760689956 928.5829955464814" stroke="#3c5c3a" stroke-width="4.895801280139635" fill="none" stroke-linecap="round" opacity="0.594264045307252"/><path d="M581.3858987078571 1146.3082887832736 Q575.9746730472812 1014.4145162423711 570.5634473867052 935.2782527178294" stroke="#3c5c3a" stroke-width="4.837975473040407" fill="none" stroke-linecap="round" opacity="0.6722552439949995"/><path d="M115.40044060627181 1123.0188860516714 Q122.66263959231478 1009.3205459190589 129.92483857835776 941.1015418394913" stroke="#3c5c3a" stroke-width="3.6668888898975944" fill="none" stroke-linecap="round" opacity="0.5611059702203616"/><path d="M284.10949635840177 910.4507905845718 Q280.8096613295865 846.9254780091045 277.50982630077124 808.810290463824" stroke="#3c5c3a" stroke-width="2.6057450280934056" fill="none" stroke-linecap="round" opacity="0.7313576479621102"/><path d="M1364.0869075788132 1003.2857181933884 Q1349.9506391659306 916.8250994069974 1335.814370753048 864.9487281351629" stroke="#3c5c3a" stroke-width="2.0149453133065927" fill="none" stroke-linecap="round" opacity="0.5204693382572647"/><path d="M1341.5792762147682 1133.5081633005589 Q1351.406112098615 1054.0374861146659 1361.2329479824616 1006.35507980313" stroke="#3c5c3a" stroke-width="4.380454606173629" fill="none" stroke-linecap="round" opacity="0.8367095006541678"/><path d="M1113.2242340383154 1140.6074174988946 Q1101.3430814442925 1066.2550884993111 1089.4619288502693 1021.643691099561" stroke="#3c5c3a" stroke-width="4.882732693315409" fill="none" stroke-linecap="round" opacity="0.4897854132690508"/><path d="M6.182899976531786 939.0947625852963 Q20.085166634272735 814.1418410523868 33.987433292013684 739.170088132641" stroke="#3c5c3a" stroke-width="3.395448058752752" fill="none" stroke-linecap="round" opacity="0.5468817062758018"/><path d="M335.6272090895642 1106.1492529770978 Q326.265673692797 1025.692568206598 316.9041382960299 977.418557344298" stroke="#3c5c3a" stroke-width="3.4112899115031468" fill="none" stroke-linecap="round" opacity="0.5608531765182532"/><path d="M1465.6554460004015 1180.2348287087539 Q1470.4493800519438 1046.1679339248515 1475.243314103486 965.72779705451" stroke="#3c5c3a" stroke-width="4.169650953201963" fill="none" stroke-linecap="round" opacity="0.5709639191105131"/><path d="M1062.620581514934 863.5790912970692 Q1071.3807681130365 810.1812024753672 1080.140954711139 778.142469182346" stroke="#3c5c3a" stroke-width="3.093363860301829" fill="none" stroke-linecap="round" opacity="0.6287691920397926"/><path d="M438.0244363664632 919.690043843051 Q442.75696196512047 865.5359504362589 447.48948756377774 833.0434943921837" stroke="#3c5c3a" stroke-width="2.7002034049812793" fill="none" stroke-linecap="round" opacity="0.4640587884735163"/><path d="M650.4693545599704 921.734704629567 Q661.3736939630139 854.2779096880512 672.2780333660576 813.8038327231418" stroke="#3c5c3a" stroke-width="3.6923082910948772" fill="none" stroke-linecap="round" opacity="0.651759897607979"/><path d="M224.69197052186001 879.1542855584802 Q214.44713704596978 754.2690775107798 204.20230357007955 679.3379526821595" stroke="#3c5c3a" stroke-width="3.756532756202617" fill="none" stroke-linecap="round" opacity="0.556304296199631"/><path d="M353.26840958198034 983.367523863265 Q347.8300437617902 901.4702663724553 342.3916779416001 852.3319118779694" stroke="#3c5c3a" stroke-width="3.919166880089488" fill="none" stroke-linecap="round" opacity="0.5852399413989093"/><path d="M72.70680237216354 875.5068302164924 Q66.77122008439255 743.4475084563705 60.83563779662157 664.2119154002974" stroke="#3c5c3a" stroke-width="3.088971090984432" fill="none" stroke-linecap="round" opacity="0.6513420239511254"/><path d="M810.4501672997836 1122.2160186180527 Q803.2464008865995 1038.7926488254584 796.0426344734153 988.738626949902" stroke="#3c5c3a" stroke-width="4.541494496569142" fill="none" stroke-linecap="round" opacity="0.566870303840413"/><path d="M405.23033875197603 761.6665057002106 Q392.7366229936427 678.4199755773978 380.2429072353094 628.4720575037103" stroke="#3c5c3a" stroke-width="4.853733262309568" fill="none" stroke-linecap="round" opacity="0.7129718951108976"/><path d="M656.8033035025966 798.34512793608 Q653.6082401436347 759.3564726387083 650.4131767846728 735.9632794602852" stroke="#3c5c3a" stroke-width="3.249182883961223" fill="none" stroke-linecap="round" opacity="0.5583301803407931"/>

<rect x="0" y="0" width="1600" height="1200" filter="url(#grain202)"/>
<rect x="0" y="0" width="1600" height="1200" fill="url(#vig202)"/>
</svg>