<svg xmlns="http://www.w3.org/2000/svg" viewBox="0 0 1600 1200" width="1600" height="1200" preserveAspectRatio="xMidYMid slice">
<defs>

<linearGradient id="sky702" x1="0" y1="0" x2="0" y2="1">
<stop offset="0%" stop-color="#12222c"/><stop offset="100%" stop-color="#264a52"/>
</linearGradient>

<filter id="grain702"><feTurbulence type="fractalNoise" baseFrequency="0.85" numOctaves="2" seed="702" stitchTiles="stitch" result="noise"/><feColorMatrix in="noise" type="matrix" values="0 0 0 0 0  0 0 0 0 0  0 0 0 0 0  0 0 0 0.035 0"/></filter>
<radialGradient id="vig702" cx="50%" cy="42%" r="75%"><stop offset="55%" stop-color="#000" stop-opacity="0"/><stop offset="100%" stop-color="#000" stop-opacity="0.30"/></radialGradient>
</defs>

<rect x="0" y="0" width="1600" height="720.0" fill="url(#sky702)"/>
<rect x="0" y="720.0" width="1600" height="480.0" fill="#0c2932"/>
<circle cx="1224.5858401728717" cy="485.2965517506895" r="1.2723798756233615" fill="#fff" opacity="0.7464393473084491"/><circle cx="1332.0723804546597" cy="506.9048268188187" r="2.415897574818602" fill="#fff" opacity="0.784058578648477"/><circle cx="1307.3515351763333" cy="551.8073656534401" r="1.836353286159964" fill="#fff" opacity="0.33894750873354906"/><circle cx="1586.9820266385266" cy="454.04194808251106" r="2.94171326128894" fill="#fff" opacity="0.711475656482175"/><circle cx="1568.4968846597258" cy="448.4395412991036" r="1.158177113994164" fill="#fff" opacity="0.671770979375713"/><circle cx="675.1866817694047" cy="506.68693216778286" r="1.160606795027756" fill="#fff" opacity="0.5884791740834411"/><circle cx="379.24920577332205" cy="49.82080029072543" r="2.2473286307800358" fill="#fff" opacity="0.7391914562898512"/><circle cx="184.09874388643388" cy="274.7011291624949" r="2.0823654289979023" fill="#fff" opacity="0.6073505090790698"/><circle cx="1493.3369590366342" cy="60.56382202390807" r="1.931455351257499" fill="#fff" opacity="0.3605798167543632"/><circle cx="1231.3666912281647" cy="454.20898638046316" r="2.2969507857185" fill="#fff" opacity="0.3830163304561726"/><circle cx="737.7375878794329" cy="347.02760574059295" r="1.6526144407151435" fill="#fff" opacity="0.5137227503909667"/><circle cx="284.7714902671761" cy="392.52353159931386" r="2.072325529018128" fill="#fff" opacity="0.7112132291339774"/><circle cx="714.1254103073118" cy="401.10699525044737" r="1.6987253069443475" fill="#fff" opacity="0.4517215398750143"/><circle cx="1275.952958216598" cy="162.3802332320459" r="1.7713961339862099" fill="#fff" opacity="0.6084828261952606"/><circle cx="1442.9419688358194" cy="462.03817944642225" r="2.5978308277019444" fill="#fff" opacity="0.7518536520871693"/><circle cx="708.45441822603" cy="132.90053339100723" r="1.9597903850862937" fill="#fff" opacity="0.55903425694077"/><circle cx="1524.5904197641948" cy="491.23397077895265" r="1.941740032641005" fill="#fff" opacity="0.6520272193194745"/><circle cx="1084.1629226656867" cy="418.4132277777551" r="2.4986607289492877" fill="#fff" opacity="0.3754283993783574"/><circle cx="31.93066001628324" cy="256.17531993078376" r="2.454478915916537" fill="#fff" opacity="0.5617529869894216"/><circle cx="1540.168201481669" cy="137.09189784325878" r="1.463396698673821" fill="#fff" opacity="0.6223459154938238"/><circle cx="347.2437264282156" cy="464.75309298258463" r="1.765219431014955" fill="#fff" opacity="0.5800471843349906"/><circle cx="1116.8773509407358" cy="358.2843147081833" r="1.3774017332817619" fill="#fff" opacity="0.3180770290748074"/><circle cx="1173.1308608805189" cy="44.29558494900115" r="1.2044350037951392" fill="#fff" opacity="0.3368113018267885"/><circle cx="1482.945346872994" cy="133.63412333846574" r="2.5414184785835503" fill="#fff" opacity="0.3525883225907086"/><circle cx="1520.4373251835661" cy="142.77953728384108" r="1.1930471179220161" fill="#fff" opacity="0.5251987405753342"/><circle cx="174.62723032674495" cy="278.6340251337496" r="2.4414868490255746" fill="#fff" opacity="0.3367318820021569"/><circle cx="482.85864987478016" cy="138.53319140051258" r="1.3482473423642036" fill="#fff" opacity="0.4359881087374136"/><circle cx="1405.9715128089479" cy="562.3927189264886" r="1.316631518887141" fill="#fff" opacity="0.5541391938683238"/><circle cx="659.989214461549" cy="251.70030846623703" r="1.0536781487515234" fill="#fff" opacity="0.7238141911647782"/><circle cx="441.5935288848596" cy="137.59180906694473" r="2.770403739987605" fill="#fff" opacity="0.4687222498762951"/><circle cx="501.2893676133638" cy="424.9363747228177" r="1.658013537072633" fill="#fff" opacity="0.7053284509926026"/><circle cx="11.079595503338169" cy="4.2732248020779044" r="2.606467070600499" fill="#fff" opacity="0.698477140912364"/><circle cx="1490.7656650704841" cy="234.79534503522578" r="2.3688375506549946" fill="#fff" opacity="0.7467365328476301"/><circle cx="939.9008834613593" cy="323.14413795305495" r="1.1099846464903176" fill="#fff" opacity="0.5331951886589594"/><circle cx="1598.886168961673" cy="159.3790667590232" r="2.4847608683678306" fill="#fff" opacity="0.6874899355725244"/><circle cx="211.46242895015934" cy="481.7573745048227" r="1.7674648845880332" fill="#fff" opacity="0.7781077605558486"/><circle cx="1450.6917752806048" cy="598.7256711310212" r="2.875715708840042" fill="#fff" opacity="0.7833611909475966"/><circle cx="380.0369643356829" cy="440.81491017607857" r="2.3043383246403524" fill="#fff" opacity="0.41723828741416535"/><circle cx="332.63452715765334" cy="439.1785708481693" r="2.3389200593426738" fill="#fff" opacity="0.3431372929291737"/><circle cx="969.8786371155336" cy="463.02257886117576" r="2.3865428802583137" fill="#fff" opacity="0.43694420445502974"/><circle cx="1222.6439664071231" cy="591.5859024159819" r="2.8483315216238525" fill="#fff" opacity="0.7475791378296528"/><circle cx="964.2041355289529" cy="316.5702683062734" r="2.347333375996892" fill="#fff" opacity="0.6435518755562436"/><circle cx="1356.9963524433713" cy="231.6870482204159" r="1.2117891961598335" fill="#fff" opacity="0.5000851548396364"/><circle cx="411.81204580828205" cy="167.32563821896508" r="2.435977252701432" fill="#fff" opacity="0.5097810117519512"/><circle cx="222.740997152472" cy="346.42919845848064" r="2.930366567129531" fill="#fff" opacity="0.49719065658817563"/><circle cx="1576.5885252478326" cy="415.94667187886523" r="1.9777481925932632" fill="#fff" opacity="0.38022548178711185"/><circle cx="876.2372178045274" cy="159.40527489285282" r="2.0715558266890817" fill="#fff" opacity="0.6015070211290559"/><circle cx="15.817194142242208" cy="165.90602207736498" r="1.8043350384748083" fill="#fff" opacity="0.5781866967293128"/><circle cx="258.9923872407205" cy="89.49441668400796" r="1.3606067202526009" fill="#fff" opacity="0.37545751994492166"/><circle cx="1015.581713807498" cy="592.203884247042" r="2.4037667323426186" fill="#fff" opacity="0.38654920828134454"/><circle cx="46.962781304210566" cy="74.74983281237743" r="2.477752200519922" fill="#fff" opacity="0.6055317832534092"/><circle cx="852.2599964605371" cy="572.937661962287" r="2.3610313465099786" fill="#fff" opacity="0.4574815763639272"/><circle cx="990.7468397787237" cy="535.2906757699348" r="1.4801989883769677" fill="#fff" opacity="0.7829496561918132"/><circle cx="840.2796586183629" cy="155.2228615395634" r="1.867006282975649" fill="#fff" opacity="0.37498293785703496"/><circle cx="1508.4180042324651" cy="76.09548390914745" r="2.1537811214102174" fill="#fff" opacity="0.6145818666899893"/><circle cx="547.966531727352" cy="524.044968927338" r="2.2209599754916813" fill="#fff" opacity="0.3613915323631049"/><circle cx="290.72462971623486" cy="134.2587605537435" r="2.611381710614559" fill="#fff" opacity="0.7560681064096717"/><circle cx="581.0478803116181" cy="269.7466851665642" r="1.2917871058540729" fill="#fff" opacity="0.3891538481994159"/><circle cx="1092.905421556244" cy="276.64829081869505" r="1.1939498332223468" fill="#fff" opacity="0.3246414204961994"/><circle cx="1315.554879133456" cy="13.008477260275559" r="2.388759075655053" fill="#fff" opacity="0.42361976949409624"/><circle cx="1429.284464772992" cy="49.76413005009225" r="1.875090370578235" fill="#fff" opacity="0.6291626305686033"/><circle cx="535.414742764845" cy="417.3288131474007" r="1.1633969572531606" fill="#fff" opacity="0.7348196491080459"/><circle cx="265.4472278337966" cy="130.08566708876972" r="1.8839312999885558" fill="#fff" opacity="0.534650666488723"/><circle cx="110.31183879490598" cy="373.26714920018065" r="2.597625597567859" fill="#fff" opacity="0.786886827819484"/><circle cx="440.0598163617941" cy="571.510981981119" r="2.8378053596773576" fill="#fff" opacity="0.7576660214744104"/><circle cx="1561.2779806495962" cy="80.83220942343249" r="2.3653923341049343" fill="#fff" opacity="0.3399731254802847"/><circle cx="1365.7443612521868" cy="371.6538989976491" r="2.4073821192643052" fill="#fff" opacity="0.5326149959825424"/><circle cx="1055.4871432238256" cy="359.64594426456904" r="2.3494684171131084" fill="#fff" opacity="0.5876734481916637"/><circle cx="1191.1217366648398" cy="310.2330997236919" r="1.3723356984425976" fill="#fff" opacity="0.4509868582776307"/><circle cx="705.6421824090459" cy="573.4173386324125" r="1.6463851287163342" fill="#fff" opacity="0.3999264805201684"/>
<circle cx="1184.0" cy="230.4" r="90" fill="#f2d9a0"/>
<g opacity="0.3">
<rect x="0" y="738.0" width="1600" height="3" fill="#f2d9a0" opacity="0.14"/><rect x="0" y="778.0" width="1600" height="3" fill="#f2d9a0" opacity="0.125"/><rect x="0" y="818.0" width="1600" height="3" fill="#f2d9a0" opacity="0.11000000000000001"/><rect x="0" y="858.0" width="1600" height="3" fill="#f2d9a0" opacity="0.09500000000000001"/><rect x="0" y="898.0" width="1600" height="3" fill="#f2d9a0" opacity="0.08000000000000002"/><rect x="0" y="938.0" width="1600" height="3" fill="#f2d9a0" opacity="0.06500000000000002"/>
</g>

<rect x="0" y="0" width="1600" height="1200" filter="url(#grain702)"/>
<rect x="0" y="0" width="1600" height="1200" fill="url(#vig702)"/>
</svg>