<svg xmlns="http://www.w3.org/2000/svg" viewBox="0 0 1600 1200" width="1600" height="1200" preserveAspectRatio="xMidYMid slice">
<defs>

<linearGradient id="sky701" x1="0" y1="0" x2="0" y2="1">
<stop offset="0%" stop-color="#0d1b26"/><stop offset="100%" stop-color="#1c3a45"/>
</linearGradient>

<filter id="grain701"><feTurbulence type="fractalNoise" baseFrequency="0.85" numOctaves="2" seed="701" stitchTiles="stitch" result="noise"/><feColorMatrix in="noise" type="matrix" values="0 0 0 0 0  0 0 0 0 0  0 0 0 0 0  0 0 0 0.035 0"/></filter>
<radialGradient id="vig701" cx="50%" cy="42%" r="75%"><stop offset="55%" stop-color="#000" stop-opacity="0"/><stop offset="100%" stop-color="#000" stop-opacity="0.30"/></radialGradient>
</defs>

<rect x="0" y="0" width="1600" height="720.0" fill="url(#sky701)"/>
<rect x="0" y="720.0" width="1600" height="480.0" fill="#0a2530"/>
<circle cx="1195.4238805720954" cy="305.60733714090185" r="1.222030323546654" fill="#fff" opacity="0.5748587153264282"/><circle cx="386.88597600364926" cy="326.4045869162006" r="2.9936035345459224" fill="#fff" opacity="0.5693683748419693"/><circle cx="67.2192488630099" cy="108.58274216919797" r="2.7982328552165514" fill="#fff" opacity="0.3772660991610491"/><circle cx="605.2291750339381" cy="27.01413341728539" r="1.6454959576359693" fill="#fff" opacity="0.48074903387725726"/><circle cx="1567.834916807556" cy="572.586219620155" r="1.230284598703827" fill="#fff" opacity="0.6865403260734885"/><circle cx="401.79441161495555" cy="330.4242336050322" r="2.031895130422388" fill="#fff" opacity="0.5801135631851901"/><circle cx="893.8307361834376" cy="263.9909417749637" r="1.8941543434349113" fill="#fff" opacity="0.49640298378947195"/><circle cx="310.44915214941113" cy="114.82037945961477" r="1.0346019417474361" fill="#fff" opacity="0.6381856443207805"/><circle cx="1466.597367032421" cy="600.7967665468836" r="2.4525220356181023" fill="#fff" opacity="0.6481724780235125"/><circle cx="1180.8508314991009" cy="489.9676420759432" r="1.4695200724359818" fill="#fff" opacity="0.5504018188074908"/><circle cx="703.572937841288" cy="57.52929770019512" r="2.8493716254404013" fill="#fff" opacity="0.6409767922713255"/><circle cx="1171.9437235870216" cy="390.2202242762466" r="1.233216887827474" fill="#fff" opacity="0.7917384465891575"/><circle cx="126.97503449595686" cy="575.104527635501" r="1.5167460793079126" fill="#fff" opacity="0.5505198095173125"/><circle cx="1446.8782328160592" cy="211.8122235040676" r="2.7531009084175704" fill="#fff" opacity="0.7975076605248028"/><circle cx="443.03492047629953" cy="610.630569666449" r="2.9366425086280876" fill="#fff" opacity="0.7854836844739587"/><circle cx="766.5535233883152" cy="240.27370660185008" r="2.47570540753971" fill="#fff" opacity="0.3184660652947984"/><circle cx="385.47196132041483" cy="113.78212014706521" r="2.9271851787914835" fill="#fff" opacity="0.3510076388255773"/><circle cx="212.17210338060522" cy="341.0398456256576" r="1.4765637062794947" fill="#fff" opacity="0.7496157486298438"/><circle cx="1428.9004369098373" cy="161.70971624248088" r="2.068906975481167" fill="#fff" opacity="0.7433904077948883"/><circle cx="27.597122125793483" cy="325.02952458072076" r="1.164156091927941" fill="#fff" opacity="0.6873431249775097"/><circle cx="1467.5316470202793" cy="195.92858392068172" r="1.1067492689777245" fill="#fff" opacity="0.552138816589504"/><circle cx="1389.080628202172" cy="15.930292280277579" r="2.210982458067874" fill="#fff" opacity="0.6466928615819937"/><circle cx="178.4316866469748" cy="494.0261695855021" r="2.990551362096049" fill="#fff" opacity="0.3195793614190908"/><circle cx="538.9146649737457" cy="590.6321209544574" r="1.9011410476575181" fill="#fff" opacity="0.6585068642505594"/><circle cx="1307.3796764921533" cy="258.33940410734783" r="1.2590116694525328" fill="#fff" opacity="0.42834524556753373"/><circle cx="1491.0420782876367" cy="535.6201333849343" r="2.638793094792685" fill="#fff" opacity="0.40948865672076834"/><circle cx="444.9473007805789" cy="437.62504068851126" r="2.8429461027128418" fill="#fff" opacity="0.6959088920062967"/><circle cx="1541.8768515635131" cy="248.17454596533364" r="2.483081169590274" fill="#fff" opacity="0.45020387640309806"/><circle cx="76.72974771042416" cy="553.095290635412" r="1.158318294165255" fill="#fff" opacity="0.42789693593788153"/><circle cx="1387.7868087868137" cy="491.2953243307226" r="2.696926374640266" fill="#fff" opacity="0.6544518598962368"/><circle cx="399.94002202518806" cy="362.04227376964053" r="1.5457906822886176" fill="#fff" opacity="0.7492338660647024"/><circle cx="590.3074489273164" cy="213.52189689851676" r="1.993075208060015" fill="#fff" opacity="0.6029246744517662"/><circle cx="195.5585489194739" cy="551.8538089040095" r="2.8789087161389313" fill="#fff" opacity="0.3716533867535814"/><circle cx="1128.6351395335248" cy="358.9901963141837" r="1.1548344424840953" fill="#fff" opacity="0.5238898940591388"/><circle cx="1483.8927384701879" cy="309.48532447408064" r="2.630640397468218" fill="#fff" opacity="0.6556965742015883"/><circle cx="1231.272202285938" cy="577.3686439080485" r="1.0513824967094665" fill="#fff" opacity="0.5663926032224574"/><circle cx="330.90493078855394" cy="574.0473917060332" r="2.2839019322239738" fill="#fff" opacity="0.3731520623382959"/><circle cx="1533.8729883762105" cy="277.9264647773401" r="1.0701801227545438" fill="#fff" opacity="0.5233057761907665"/><circle cx="721.7212597363966" cy="353.18443733879246" r="2.1016632581805297" fill="#fff" opacity="0.5785554795673475"/><circle cx="1220.3913000104403" cy="567.0109910965231" r="2.723862640954401" fill="#fff" opacity="0.5213127271262474"/><circle cx="834.402867625403" cy="145.07730676766406" r="2.9068943287140385" fill="#fff" opacity="0.7900971341457212"/><circle cx="1371.0999335798717" cy="171.24583172257292" r="1.5648686871490465" fill="#fff" opacity="0.6584931958903908"/><circle cx="10.73301757287144" cy="506.5147562254619" r="2.0551683240895278" fill="#fff" opacity="0.7751219229944956"/><circle cx="472.55085303971975" cy="295.6776679715779" r="1.8919946275643027" fill="#fff" opacity="0.6587626155613515"/><circle cx="1520.8751805357663" cy="585.6095292864911" r="2.1437386380862913" fill="#fff" opacity="0.7555546860206226"/><circle cx="86.8785583564037" cy="217.95693792354757" r="1.9827501150964346" fill="#fff" opacity="0.30493402788071033"/><circle cx="12.452946099346995" cy="524.8945695719596" r="2.106211038680054" fill="#fff" opacity="0.7197983760972076"/><circle cx="890.2569119600821" cy="144.73311272319728" r="1.7623695653199798" fill="#fff" opacity="0.515283749206811"/><circle cx="1440.5067926619606" cy="201.57004059672025" r="2.0161288277704763" fill="#fff" opacity="0.5579099950087165"/><circle cx="669.4965471182405" cy="303.44277430713777" r="1.1602185530750135" fill="#fff" opacity="0.33461539330811585"/><circle cx="322.6840191836862" cy="144.30443456848155" r="2.1806891155262904" fill="#fff" opacity="0.6574704687374602"/><circle cx="390.4986565554083" cy="244.6167432549106" r="1.6513786600624523" fill="#fff" opacity="0.4818308626833467"/><circle cx="679.4047503188096" cy="68.07493168305268" r="2.6111999636194887" fill="#fff" opacity="0.7337687566000664"/><circle cx="130.3432764714593" cy="480.8812622719143" r="1.3154739556637305" fill="#fff" opacity="0.6227836951826426"/><circle cx="383.2333446880854" cy="492.03752094461663" r="1.2943298016254736" fill="#fff" opacity="0.3816614458200255"/><circle cx="536.2220601889467" cy="421.76504299816884" r="1.8786989285005031" fill="#fff" opacity="0.5901208551543975"/><circle cx="98.2184378530011" cy="448.63066264787807" r="1.5487615886788804" fill="#fff" opacity="0.7999795773103375"/><circle cx="818.8029327182763" cy="53.14174389805524" r="1.732173276391026" fill="#fff" opacity="0.5045230269786198"/><circle cx="1537.0214000814813" cy="73.52700752689881" r="1.626811126558971" fill="#fff" opacity="0.4539643975600067"/><circle cx="1444.6122995945584" cy="461.5979162996419" r="1.7142711095262566" fill="#fff" opacity="0.438738079518502"/><circle cx="1567.2070461132919" cy="122.44673827670677" r="1.86854322707551" fill="#fff" opacity="0.4560406633144122"/><circle cx="494.21698080800115" cy="435.7284861155174" r="2.721883867003828" fill="#fff" opacity="0.6447257143904938"/><circle cx="1331.0817748943239" cy="555.677828925413" r="2.1189612412650556" fill="#fff" opacity="0.7223292870136782"/><circle cx="536.3337817100902" cy="113.73280135746545" r="1.1179895925688608" fill="#fff" opacity="0.7239527768258274"/><circle cx="370.60502299150517" cy="575.906021574928" r="1.1923500537992624" fill="#fff" opacity="0.3742983742207534"/><circle cx="196.5953029001051" cy="319.98566823261245" r="2.6405057027047585" fill="#fff" opacity="0.4928313850083087"/><circle cx="1566.941216654484" cy="237.16625966039592" r="1.1576993670470115" fill="#fff" opacity="0.30392777369956925"/><circle cx="874.6056752780441" cy="388.7716345335326" r="2.108973954660809" fill="#fff" opacity="0.715776077212299"/><circle cx="314.02162723886204" cy="179.58172916009178" r="1.2467304277993618" fill="#fff" opacity="0.319392229983389"/><circle cx="515.0779712119503" cy="184.83136851860505" r="1.0641686160078312" fill="#fff" opacity="0.7728961032399394"/>
<circle cx="1184.0" cy="230.4" r="90" fill="#e9e2c8"/>
<g opacity="0.3">
<rect x="0" y="738.0" width="1600" height="3" fill="#e9e2c8" opacity="0.14"/><rect x="0" y="778.0" width="1600" height="3" fill="#e9e2c8" opacity="0.125"/><rect x="0" y="818.0" width="1600" height="3" fill="#e9e2c8" opacity="0.11000000000000001"/><rect x="0" y="858.0" width="1600" height="3" fill="#e9e2c8" opacity="0.09500000000000001"/><rect x="0" y="898.0" width="1600" height="3" fill="#e9e2c8" opacity="0.08000000000000002"/><rect x="0" y="938.0" width="1600" height="3" fill="#e9e2c8" opacity="0.06500000000000002"/>
</g>

<rect x="0" y="0" width="1600" height="1200" filter="url(#grain701)"/>
<rect x="0" y="0" width="1600" height="1200" fill="url(#vig701)"/>
</svg>