<svg xmlns="http://www.w3.org/2000/svg" viewBox="0 0 1600 1200" width="1600" height="1200" preserveAspectRatio="xMidYMid slice">
<defs>

<linearGradient id="sea402" x1="0" y1="0" x2="0" y2="1">
<stop offset="0%" stop-color="#9fd6d8"/><stop offset="45%" stop-color="#2c6f79"/><stop offset="100%" stop-color="#0c333c"/>
</linearGradient>

<filter id="grain402"><feTurbulence type="fractalNoise" baseFrequency="0.85" numOctaves="2" seed="402" stitchTiles="stitch" result="noise"/><feColorMatrix in="noise" type="matrix" values="0 0 0 0 0  0 0 0 0 0  0 0 0 0 0  0 0 0 0.035 0"/></filter>
<radialGradient id="vig402" cx="50%" cy="42%" r="75%"><stop offset="55%" stop-color="#000" stop-opacity="0"/><stop offset="100%" stop-color="#000" stop-opacity="0.30"/></radialGradient>
</defs>

<rect x="0" y="0" width="1600" height="1200" fill="url(#sea402)"/>
<path d="M-40 152.87627473165358 Q 352.0 106.87627473165358 800.0 160.87627473165358 T 1640 134.87627473165358" stroke="#eafaf7" stroke-width="5.778526943555075" fill="none" opacity="0.4" stroke-linecap="round"/><path d="M-40 315.69253814743763 Q 352.0 269.69253814743763 800.0 323.69253814743763 T 1640 297.69253814743763" stroke="#eafaf7" stroke-width="8.245060700335276" fill="none" opacity="0.36000000000000004" stroke-linecap="round"/><path d="M-40 481.9813082979891 Q 352.0 435.9813082979891 800.0 489.9813082979891 T 1640 463.9813082979891" stroke="#eafaf7" stroke-width="8.272624287845439" fill="none" opacity="0.32" stroke-linecap="round"/><path d="M-40 646.2144048899908 Q 352.0 600.2144048899908 800.0 654.2144048899908 T 1640 628.2144048899908" stroke="#eafaf7" stroke-width="10.457061865294845" fill="none" opacity="0.28" stroke-linecap="round"/><path d="M-40 833.5860156201314 Q 352.0 787.5860156201314 800.0 841.5860156201314 T 1640 815.5860156201314" stroke="#eafaf7" stroke-width="6.37037342822992" fill="none" opacity="0.24000000000000002" stroke-linecap="round"/><path d="M-40 1000.7215000617355 Q 352.0 954.7215000617355 800.0 1008.7215000617355 T 1640 982.7215000617355" stroke="#eafaf7" stroke-width="9.981603671211385" fill="none" opacity="0.2" stroke-linecap="round"/>

<rect x="0" y="0" width="1600" height="1200" filter="url(#grain402)"/>
<rect x="0" y="0" width="1600" height="1200" fill="url(#vig402)"/>
</svg>