<svg xmlns="http://www.w3.org/2000/svg" viewBox="0 0 1920 1080" role="img" aria-label="Wide open coastal beach at sunrise">
<defs><linearGradient id="sky" x1="0" y1="0" x2="0" y2="1"><stop stop-color="#9ccbd2"/><stop offset=".56" stop-color="#f6d3a7"/><stop offset="1" stop-color="#efd0a0"/></linearGradient><linearGradient id="sea" x1="0" y1="0" x2="0" y2="1"><stop stop-color="#4e95a3"/><stop offset="1" stop-color="#286877"/></linearGradient><linearGradient id="sand" x1="0" y1="0" x2="0" y2="1"><stop stop-color="#edd0a0"/><stop offset="1" stop-color="#c99a65"/></linearGradient><filter id="grain"><feTurbulence baseFrequency=".75" numOctaves="2" seed="4" type="fractalNoise"/><feColorMatrix values="1 0 0 0 0 0 1 0 0 0 0 0 1 0 0 0 0 0 .065 0"/></filter></defs>
<rect width="1920" height="1080" fill="url(#sky)"/><circle cx="1420" cy="300" r="88" fill="#ffe5a6" opacity=".88"/><path d="M0 545 C470 515 800 530 1180 515 C1450 505 1700 530 1920 520 L1920 760 L0 760Z" fill="url(#sea)"/><path d="M0 680 C320 625 665 660 980 620 C1300 580 1640 595 1920 570 L1920 1080 L0 1080Z" fill="url(#sand)"/><path d="M0 670 C450 610 780 660 1080 615 C1360 575 1645 596 1920 568" fill="none" stroke="#f7f1df" stroke-width="24" opacity=".88"/><path d="M1100 760 C1340 700 1580 670 1920 655 L1920 1080 L1120 1080Z" fill="#d4a96f" opacity=".7"/><path d="M1260 620 C1500 560 1720 555 1920 548 L1920 640 C1700 623 1450 650 1220 690Z" fill="#b78b5c" opacity=".55"/><g fill="#708760"><path d="M1510 598q22-75 35 0q10-67 25 2q17-61 31 7z"/><path d="M1660 580q24-70 35 2q14-60 28 3q14-50 25 8z"/><path d="M1785 565q20-58 29 2q13-50 25 5q14-43 22 8z"/></g><rect width="1920" height="1080" filter="url(#grain)" opacity=".55"/></svg>